<mxfile host="app.diagrams.net" modified="2022-11-18T02:41:03.791Z" agent="5.0 (Windows NT 10.0; Win64; x64) AppleWebKit/537.36 (KHTML, like Gecko) Chrome/107.0.0.0 Safari/537.36" etag="O8-b3ky-utzlaqw4LxYB" version="20.5.3" type="github" pages="2">
  <diagram id="mLcDaYYtNjILdr2oHwF2" name="Page-1">
    <mxGraphModel dx="1101" dy="456" grid="1" gridSize="10" guides="1" tooltips="1" connect="1" arrows="1" fold="1" page="1" pageScale="1" pageWidth="1169" pageHeight="827" math="0" shadow="0">
      <root>
        <mxCell id="0" />
        <mxCell id="1" parent="0" />
        <mxCell id="D7hMj3AG1V0tf8wTW78q-68" value="Penumpang" style="shape=table;startSize=30;container=1;collapsible=1;childLayout=tableLayout;fixedRows=1;rowLines=0;fontStyle=1;align=center;resizeLast=1;strokeColor=#0000CC;fontSize=12;fillColor=#99FF33;" parent="1" vertex="1">
          <mxGeometry x="40" y="497" width="200" height="330" as="geometry" />
        </mxCell>
        <mxCell id="D7hMj3AG1V0tf8wTW78q-69" value="" style="shape=tableRow;horizontal=0;startSize=0;swimlaneHead=0;swimlaneBody=0;fillColor=none;collapsible=0;dropTarget=0;points=[[0,0.5],[1,0.5]];portConstraint=eastwest;top=0;left=0;right=0;bottom=1;strokeColor=#0000CC;fontSize=12;" parent="D7hMj3AG1V0tf8wTW78q-68" vertex="1">
          <mxGeometry y="30" width="200" height="30" as="geometry" />
        </mxCell>
        <mxCell id="D7hMj3AG1V0tf8wTW78q-70" value="PK" style="shape=partialRectangle;connectable=0;fillColor=none;top=0;left=0;bottom=0;right=0;fontStyle=1;overflow=hidden;strokeColor=#0000CC;fontSize=12;" parent="D7hMj3AG1V0tf8wTW78q-69" vertex="1">
          <mxGeometry width="30" height="30" as="geometry">
            <mxRectangle width="30" height="30" as="alternateBounds" />
          </mxGeometry>
        </mxCell>
        <mxCell id="D7hMj3AG1V0tf8wTW78q-71" value="nama_depan" style="shape=partialRectangle;connectable=0;fillColor=none;top=0;left=0;bottom=0;right=0;align=left;spacingLeft=6;fontStyle=5;overflow=hidden;strokeColor=#0000CC;fontSize=12;" parent="D7hMj3AG1V0tf8wTW78q-69" vertex="1">
          <mxGeometry x="30" width="170" height="30" as="geometry">
            <mxRectangle width="170" height="30" as="alternateBounds" />
          </mxGeometry>
        </mxCell>
        <mxCell id="D7hMj3AG1V0tf8wTW78q-72" value="" style="shape=tableRow;horizontal=0;startSize=0;swimlaneHead=0;swimlaneBody=0;fillColor=none;collapsible=0;dropTarget=0;points=[[0,0.5],[1,0.5]];portConstraint=eastwest;top=0;left=0;right=0;bottom=0;strokeColor=#0000CC;fontSize=12;" parent="D7hMj3AG1V0tf8wTW78q-68" vertex="1">
          <mxGeometry y="60" width="200" height="30" as="geometry" />
        </mxCell>
        <mxCell id="D7hMj3AG1V0tf8wTW78q-73" value="FK" style="shape=partialRectangle;connectable=0;fillColor=none;top=0;left=0;bottom=0;right=0;editable=1;overflow=hidden;strokeColor=#0000CC;fontSize=12;" parent="D7hMj3AG1V0tf8wTW78q-72" vertex="1">
          <mxGeometry width="30" height="30" as="geometry">
            <mxRectangle width="30" height="30" as="alternateBounds" />
          </mxGeometry>
        </mxCell>
        <mxCell id="D7hMj3AG1V0tf8wTW78q-74" value="no_booking" style="shape=partialRectangle;connectable=0;fillColor=none;top=0;left=0;bottom=0;right=0;align=left;spacingLeft=6;overflow=hidden;strokeColor=#0000CC;fontSize=12;" parent="D7hMj3AG1V0tf8wTW78q-72" vertex="1">
          <mxGeometry x="30" width="170" height="30" as="geometry">
            <mxRectangle width="170" height="30" as="alternateBounds" />
          </mxGeometry>
        </mxCell>
        <mxCell id="D7hMj3AG1V0tf8wTW78q-75" value="" style="shape=tableRow;horizontal=0;startSize=0;swimlaneHead=0;swimlaneBody=0;fillColor=none;collapsible=0;dropTarget=0;points=[[0,0.5],[1,0.5]];portConstraint=eastwest;top=0;left=0;right=0;bottom=0;strokeColor=#0000CC;fontSize=12;" parent="D7hMj3AG1V0tf8wTW78q-68" vertex="1">
          <mxGeometry y="90" width="200" height="30" as="geometry" />
        </mxCell>
        <mxCell id="D7hMj3AG1V0tf8wTW78q-76" value="" style="shape=partialRectangle;connectable=0;fillColor=none;top=0;left=0;bottom=0;right=0;editable=1;overflow=hidden;strokeColor=#0000CC;fontSize=12;" parent="D7hMj3AG1V0tf8wTW78q-75" vertex="1">
          <mxGeometry width="30" height="30" as="geometry">
            <mxRectangle width="30" height="30" as="alternateBounds" />
          </mxGeometry>
        </mxCell>
        <mxCell id="D7hMj3AG1V0tf8wTW78q-77" value="nama_belakang" style="shape=partialRectangle;connectable=0;fillColor=none;top=0;left=0;bottom=0;right=0;align=left;spacingLeft=6;overflow=hidden;strokeColor=#0000CC;fontSize=12;" parent="D7hMj3AG1V0tf8wTW78q-75" vertex="1">
          <mxGeometry x="30" width="170" height="30" as="geometry">
            <mxRectangle width="170" height="30" as="alternateBounds" />
          </mxGeometry>
        </mxCell>
        <mxCell id="D7hMj3AG1V0tf8wTW78q-78" value="" style="shape=tableRow;horizontal=0;startSize=0;swimlaneHead=0;swimlaneBody=0;fillColor=none;collapsible=0;dropTarget=0;points=[[0,0.5],[1,0.5]];portConstraint=eastwest;top=0;left=0;right=0;bottom=0;strokeColor=#0000CC;fontSize=12;" parent="D7hMj3AG1V0tf8wTW78q-68" vertex="1">
          <mxGeometry y="120" width="200" height="30" as="geometry" />
        </mxCell>
        <mxCell id="D7hMj3AG1V0tf8wTW78q-79" value="" style="shape=partialRectangle;connectable=0;fillColor=none;top=0;left=0;bottom=0;right=0;editable=1;overflow=hidden;strokeColor=#0000CC;fontSize=12;" parent="D7hMj3AG1V0tf8wTW78q-78" vertex="1">
          <mxGeometry width="30" height="30" as="geometry">
            <mxRectangle width="30" height="30" as="alternateBounds" />
          </mxGeometry>
        </mxCell>
        <mxCell id="D7hMj3AG1V0tf8wTW78q-80" value="no_paspor" style="shape=partialRectangle;connectable=0;fillColor=none;top=0;left=0;bottom=0;right=0;align=left;spacingLeft=6;overflow=hidden;strokeColor=#0000CC;fontSize=12;" parent="D7hMj3AG1V0tf8wTW78q-78" vertex="1">
          <mxGeometry x="30" width="170" height="30" as="geometry">
            <mxRectangle width="170" height="30" as="alternateBounds" />
          </mxGeometry>
        </mxCell>
        <mxCell id="bJsPLVLmn8eaGHgNPozO-14" value="" style="shape=tableRow;horizontal=0;startSize=0;swimlaneHead=0;swimlaneBody=0;fillColor=none;collapsible=0;dropTarget=0;points=[[0,0.5],[1,0.5]];portConstraint=eastwest;top=0;left=0;right=0;bottom=0;strokeColor=#0000CC;fontSize=12;" parent="D7hMj3AG1V0tf8wTW78q-68" vertex="1">
          <mxGeometry y="150" width="200" height="30" as="geometry" />
        </mxCell>
        <mxCell id="bJsPLVLmn8eaGHgNPozO-15" value="" style="shape=partialRectangle;connectable=0;fillColor=none;top=0;left=0;bottom=0;right=0;editable=1;overflow=hidden;strokeColor=#0000CC;fontSize=12;" parent="bJsPLVLmn8eaGHgNPozO-14" vertex="1">
          <mxGeometry width="30" height="30" as="geometry">
            <mxRectangle width="30" height="30" as="alternateBounds" />
          </mxGeometry>
        </mxCell>
        <mxCell id="bJsPLVLmn8eaGHgNPozO-16" value="kewarganegaraan" style="shape=partialRectangle;connectable=0;fillColor=none;top=0;left=0;bottom=0;right=0;align=left;spacingLeft=6;overflow=hidden;strokeColor=#0000CC;fontSize=12;" parent="bJsPLVLmn8eaGHgNPozO-14" vertex="1">
          <mxGeometry x="30" width="170" height="30" as="geometry">
            <mxRectangle width="170" height="30" as="alternateBounds" />
          </mxGeometry>
        </mxCell>
        <mxCell id="bJsPLVLmn8eaGHgNPozO-17" value="" style="shape=tableRow;horizontal=0;startSize=0;swimlaneHead=0;swimlaneBody=0;fillColor=none;collapsible=0;dropTarget=0;points=[[0,0.5],[1,0.5]];portConstraint=eastwest;top=0;left=0;right=0;bottom=0;strokeColor=#0000CC;fontSize=12;" parent="D7hMj3AG1V0tf8wTW78q-68" vertex="1">
          <mxGeometry y="180" width="200" height="30" as="geometry" />
        </mxCell>
        <mxCell id="bJsPLVLmn8eaGHgNPozO-18" value="" style="shape=partialRectangle;connectable=0;fillColor=none;top=0;left=0;bottom=0;right=0;editable=1;overflow=hidden;strokeColor=#0000CC;fontSize=12;" parent="bJsPLVLmn8eaGHgNPozO-17" vertex="1">
          <mxGeometry width="30" height="30" as="geometry">
            <mxRectangle width="30" height="30" as="alternateBounds" />
          </mxGeometry>
        </mxCell>
        <mxCell id="bJsPLVLmn8eaGHgNPozO-19" value="tanggal_kadaluarsa_paspor" style="shape=partialRectangle;connectable=0;fillColor=none;top=0;left=0;bottom=0;right=0;align=left;spacingLeft=6;overflow=hidden;strokeColor=#0000CC;fontSize=12;" parent="bJsPLVLmn8eaGHgNPozO-17" vertex="1">
          <mxGeometry x="30" width="170" height="30" as="geometry">
            <mxRectangle width="170" height="30" as="alternateBounds" />
          </mxGeometry>
        </mxCell>
        <mxCell id="bJsPLVLmn8eaGHgNPozO-142" value="" style="shape=tableRow;horizontal=0;startSize=0;swimlaneHead=0;swimlaneBody=0;fillColor=none;collapsible=0;dropTarget=0;points=[[0,0.5],[1,0.5]];portConstraint=eastwest;top=0;left=0;right=0;bottom=0;strokeColor=#0000CC;fontSize=12;" parent="D7hMj3AG1V0tf8wTW78q-68" vertex="1">
          <mxGeometry y="210" width="200" height="30" as="geometry" />
        </mxCell>
        <mxCell id="bJsPLVLmn8eaGHgNPozO-143" value="" style="shape=partialRectangle;connectable=0;fillColor=none;top=0;left=0;bottom=0;right=0;editable=1;overflow=hidden;strokeColor=#0000CC;fontSize=12;" parent="bJsPLVLmn8eaGHgNPozO-142" vertex="1">
          <mxGeometry width="30" height="30" as="geometry">
            <mxRectangle width="30" height="30" as="alternateBounds" />
          </mxGeometry>
        </mxCell>
        <mxCell id="bJsPLVLmn8eaGHgNPozO-144" value="zona" style="shape=partialRectangle;connectable=0;fillColor=none;top=0;left=0;bottom=0;right=0;align=left;spacingLeft=6;overflow=hidden;strokeColor=#0000CC;fontSize=12;" parent="bJsPLVLmn8eaGHgNPozO-142" vertex="1">
          <mxGeometry x="30" width="170" height="30" as="geometry">
            <mxRectangle width="170" height="30" as="alternateBounds" />
          </mxGeometry>
        </mxCell>
        <mxCell id="bJsPLVLmn8eaGHgNPozO-20" value="" style="shape=tableRow;horizontal=0;startSize=0;swimlaneHead=0;swimlaneBody=0;fillColor=none;collapsible=0;dropTarget=0;points=[[0,0.5],[1,0.5]];portConstraint=eastwest;top=0;left=0;right=0;bottom=0;strokeColor=#0000CC;fontSize=12;" parent="D7hMj3AG1V0tf8wTW78q-68" vertex="1">
          <mxGeometry y="240" width="200" height="30" as="geometry" />
        </mxCell>
        <mxCell id="bJsPLVLmn8eaGHgNPozO-21" value="" style="shape=partialRectangle;connectable=0;fillColor=none;top=0;left=0;bottom=0;right=0;editable=1;overflow=hidden;strokeColor=#0000CC;fontSize=12;" parent="bJsPLVLmn8eaGHgNPozO-20" vertex="1">
          <mxGeometry width="30" height="30" as="geometry">
            <mxRectangle width="30" height="30" as="alternateBounds" />
          </mxGeometry>
        </mxCell>
        <mxCell id="bJsPLVLmn8eaGHgNPozO-22" value="no_kursi" style="shape=partialRectangle;connectable=0;fillColor=none;top=0;left=0;bottom=0;right=0;align=left;spacingLeft=6;overflow=hidden;strokeColor=#0000CC;fontSize=12;" parent="bJsPLVLmn8eaGHgNPozO-20" vertex="1">
          <mxGeometry x="30" width="170" height="30" as="geometry">
            <mxRectangle width="170" height="30" as="alternateBounds" />
          </mxGeometry>
        </mxCell>
        <mxCell id="bJsPLVLmn8eaGHgNPozO-45" value="" style="shape=tableRow;horizontal=0;startSize=0;swimlaneHead=0;swimlaneBody=0;fillColor=none;collapsible=0;dropTarget=0;points=[[0,0.5],[1,0.5]];portConstraint=eastwest;top=0;left=0;right=0;bottom=0;strokeColor=#0000CC;fontSize=12;" parent="D7hMj3AG1V0tf8wTW78q-68" vertex="1">
          <mxGeometry y="270" width="200" height="30" as="geometry" />
        </mxCell>
        <mxCell id="bJsPLVLmn8eaGHgNPozO-46" value="" style="shape=partialRectangle;connectable=0;fillColor=none;top=0;left=0;bottom=0;right=0;editable=1;overflow=hidden;strokeColor=#0000CC;fontSize=12;" parent="bJsPLVLmn8eaGHgNPozO-45" vertex="1">
          <mxGeometry width="30" height="30" as="geometry">
            <mxRectangle width="30" height="30" as="alternateBounds" />
          </mxGeometry>
        </mxCell>
        <mxCell id="bJsPLVLmn8eaGHgNPozO-47" value="kode_layanan" style="shape=partialRectangle;connectable=0;fillColor=none;top=0;left=0;bottom=0;right=0;align=left;spacingLeft=6;overflow=hidden;strokeColor=#0000CC;fontSize=12;" parent="bJsPLVLmn8eaGHgNPozO-45" vertex="1">
          <mxGeometry x="30" width="170" height="30" as="geometry">
            <mxRectangle width="170" height="30" as="alternateBounds" />
          </mxGeometry>
        </mxCell>
        <mxCell id="bJsPLVLmn8eaGHgNPozO-48" value="" style="shape=tableRow;horizontal=0;startSize=0;swimlaneHead=0;swimlaneBody=0;fillColor=none;collapsible=0;dropTarget=0;points=[[0,0.5],[1,0.5]];portConstraint=eastwest;top=0;left=0;right=0;bottom=0;strokeColor=#0000CC;fontSize=12;" parent="D7hMj3AG1V0tf8wTW78q-68" vertex="1">
          <mxGeometry y="300" width="200" height="30" as="geometry" />
        </mxCell>
        <mxCell id="bJsPLVLmn8eaGHgNPozO-49" value="" style="shape=partialRectangle;connectable=0;fillColor=none;top=0;left=0;bottom=0;right=0;editable=1;overflow=hidden;strokeColor=#0000CC;fontSize=12;" parent="bJsPLVLmn8eaGHgNPozO-48" vertex="1">
          <mxGeometry width="30" height="30" as="geometry">
            <mxRectangle width="30" height="30" as="alternateBounds" />
          </mxGeometry>
        </mxCell>
        <mxCell id="bJsPLVLmn8eaGHgNPozO-50" value="no_penerbangan" style="shape=partialRectangle;connectable=0;fillColor=none;top=0;left=0;bottom=0;right=0;align=left;spacingLeft=6;overflow=hidden;strokeColor=#0000CC;fontSize=12;" parent="bJsPLVLmn8eaGHgNPozO-48" vertex="1">
          <mxGeometry x="30" width="170" height="30" as="geometry">
            <mxRectangle width="170" height="30" as="alternateBounds" />
          </mxGeometry>
        </mxCell>
        <mxCell id="bJsPLVLmn8eaGHgNPozO-86" value="Passpor" style="shape=table;startSize=30;container=1;collapsible=1;childLayout=tableLayout;fixedRows=1;rowLines=0;fontStyle=1;align=center;resizeLast=1;strokeColor=#0000CC;fontSize=12;fillColor=#99FF33;" parent="1" vertex="1">
          <mxGeometry x="540" y="540" width="200" height="120" as="geometry" />
        </mxCell>
        <mxCell id="bJsPLVLmn8eaGHgNPozO-87" value="" style="shape=tableRow;horizontal=0;startSize=0;swimlaneHead=0;swimlaneBody=0;fillColor=none;collapsible=0;dropTarget=0;points=[[0,0.5],[1,0.5]];portConstraint=eastwest;top=0;left=0;right=0;bottom=1;strokeColor=#0000CC;fontSize=12;" parent="bJsPLVLmn8eaGHgNPozO-86" vertex="1">
          <mxGeometry y="30" width="200" height="30" as="geometry" />
        </mxCell>
        <mxCell id="bJsPLVLmn8eaGHgNPozO-88" value="PK" style="shape=partialRectangle;connectable=0;fillColor=none;top=0;left=0;bottom=0;right=0;fontStyle=1;overflow=hidden;strokeColor=#0000CC;fontSize=12;" parent="bJsPLVLmn8eaGHgNPozO-87" vertex="1">
          <mxGeometry width="30" height="30" as="geometry">
            <mxRectangle width="30" height="30" as="alternateBounds" />
          </mxGeometry>
        </mxCell>
        <mxCell id="bJsPLVLmn8eaGHgNPozO-89" value="no_passpor" style="shape=partialRectangle;connectable=0;fillColor=none;top=0;left=0;bottom=0;right=0;align=left;spacingLeft=6;fontStyle=5;overflow=hidden;strokeColor=#0000CC;fontSize=12;" parent="bJsPLVLmn8eaGHgNPozO-87" vertex="1">
          <mxGeometry x="30" width="170" height="30" as="geometry">
            <mxRectangle width="170" height="30" as="alternateBounds" />
          </mxGeometry>
        </mxCell>
        <mxCell id="bJsPLVLmn8eaGHgNPozO-90" value="" style="shape=tableRow;horizontal=0;startSize=0;swimlaneHead=0;swimlaneBody=0;fillColor=none;collapsible=0;dropTarget=0;points=[[0,0.5],[1,0.5]];portConstraint=eastwest;top=0;left=0;right=0;bottom=0;strokeColor=#0000CC;fontSize=12;" parent="bJsPLVLmn8eaGHgNPozO-86" vertex="1">
          <mxGeometry y="60" width="200" height="30" as="geometry" />
        </mxCell>
        <mxCell id="bJsPLVLmn8eaGHgNPozO-91" value="FK" style="shape=partialRectangle;connectable=0;fillColor=none;top=0;left=0;bottom=0;right=0;editable=1;overflow=hidden;strokeColor=#0000CC;fontSize=12;" parent="bJsPLVLmn8eaGHgNPozO-90" vertex="1">
          <mxGeometry width="30" height="30" as="geometry">
            <mxRectangle width="30" height="30" as="alternateBounds" />
          </mxGeometry>
        </mxCell>
        <mxCell id="bJsPLVLmn8eaGHgNPozO-92" value="kewarganegaraan" style="shape=partialRectangle;connectable=0;fillColor=none;top=0;left=0;bottom=0;right=0;align=left;spacingLeft=6;overflow=hidden;strokeColor=#0000CC;fontSize=12;" parent="bJsPLVLmn8eaGHgNPozO-90" vertex="1">
          <mxGeometry x="30" width="170" height="30" as="geometry">
            <mxRectangle width="170" height="30" as="alternateBounds" />
          </mxGeometry>
        </mxCell>
        <mxCell id="bJsPLVLmn8eaGHgNPozO-93" value="" style="shape=tableRow;horizontal=0;startSize=0;swimlaneHead=0;swimlaneBody=0;fillColor=none;collapsible=0;dropTarget=0;points=[[0,0.5],[1,0.5]];portConstraint=eastwest;top=0;left=0;right=0;bottom=0;strokeColor=#0000CC;fontSize=12;" parent="bJsPLVLmn8eaGHgNPozO-86" vertex="1">
          <mxGeometry y="90" width="200" height="30" as="geometry" />
        </mxCell>
        <mxCell id="bJsPLVLmn8eaGHgNPozO-94" value="" style="shape=partialRectangle;connectable=0;fillColor=none;top=0;left=0;bottom=0;right=0;editable=1;overflow=hidden;strokeColor=#0000CC;fontSize=12;" parent="bJsPLVLmn8eaGHgNPozO-93" vertex="1">
          <mxGeometry width="30" height="30" as="geometry">
            <mxRectangle width="30" height="30" as="alternateBounds" />
          </mxGeometry>
        </mxCell>
        <mxCell id="bJsPLVLmn8eaGHgNPozO-95" value="tanggal_kadaluarsa_paspor" style="shape=partialRectangle;connectable=0;fillColor=none;top=0;left=0;bottom=0;right=0;align=left;spacingLeft=6;overflow=hidden;strokeColor=#0000CC;fontSize=12;" parent="bJsPLVLmn8eaGHgNPozO-93" vertex="1">
          <mxGeometry x="30" width="170" height="30" as="geometry">
            <mxRectangle width="170" height="30" as="alternateBounds" />
          </mxGeometry>
        </mxCell>
        <mxCell id="bJsPLVLmn8eaGHgNPozO-155" value="penumpang" style="shape=table;startSize=30;container=1;collapsible=1;childLayout=tableLayout;fixedRows=1;rowLines=0;fontStyle=1;align=center;resizeLast=1;strokeColor=#0000CC;fontSize=12;fillColor=#99FF33;" parent="1" vertex="1">
          <mxGeometry x="50" y="1040" width="200" height="270" as="geometry" />
        </mxCell>
        <mxCell id="bJsPLVLmn8eaGHgNPozO-156" value="" style="shape=tableRow;horizontal=0;startSize=0;swimlaneHead=0;swimlaneBody=0;fillColor=none;collapsible=0;dropTarget=0;points=[[0,0.5],[1,0.5]];portConstraint=eastwest;top=0;left=0;right=0;bottom=1;strokeColor=#0000CC;fontSize=12;" parent="bJsPLVLmn8eaGHgNPozO-155" vertex="1">
          <mxGeometry y="30" width="200" height="30" as="geometry" />
        </mxCell>
        <mxCell id="bJsPLVLmn8eaGHgNPozO-157" value="PK" style="shape=partialRectangle;connectable=0;fillColor=none;top=0;left=0;bottom=0;right=0;fontStyle=1;overflow=hidden;strokeColor=#0000CC;fontSize=12;" parent="bJsPLVLmn8eaGHgNPozO-156" vertex="1">
          <mxGeometry width="30" height="30" as="geometry">
            <mxRectangle width="30" height="30" as="alternateBounds" />
          </mxGeometry>
        </mxCell>
        <mxCell id="bJsPLVLmn8eaGHgNPozO-158" value="id_penumpang" style="shape=partialRectangle;connectable=0;fillColor=none;top=0;left=0;bottom=0;right=0;align=left;spacingLeft=6;fontStyle=5;overflow=hidden;strokeColor=#0000CC;fontSize=12;" parent="bJsPLVLmn8eaGHgNPozO-156" vertex="1">
          <mxGeometry x="30" width="170" height="30" as="geometry">
            <mxRectangle width="170" height="30" as="alternateBounds" />
          </mxGeometry>
        </mxCell>
        <mxCell id="bJsPLVLmn8eaGHgNPozO-159" value="" style="shape=tableRow;horizontal=0;startSize=0;swimlaneHead=0;swimlaneBody=0;fillColor=none;collapsible=0;dropTarget=0;points=[[0,0.5],[1,0.5]];portConstraint=eastwest;top=0;left=0;right=0;bottom=0;strokeColor=#0000CC;fontSize=12;" parent="bJsPLVLmn8eaGHgNPozO-155" vertex="1">
          <mxGeometry y="60" width="200" height="30" as="geometry" />
        </mxCell>
        <mxCell id="bJsPLVLmn8eaGHgNPozO-160" value="FK" style="shape=partialRectangle;connectable=0;fillColor=none;top=0;left=0;bottom=0;right=0;editable=1;overflow=hidden;strokeColor=#0000CC;fontSize=12;" parent="bJsPLVLmn8eaGHgNPozO-159" vertex="1">
          <mxGeometry width="30" height="30" as="geometry">
            <mxRectangle width="30" height="30" as="alternateBounds" />
          </mxGeometry>
        </mxCell>
        <mxCell id="bJsPLVLmn8eaGHgNPozO-161" value="no_booking" style="shape=partialRectangle;connectable=0;fillColor=none;top=0;left=0;bottom=0;right=0;align=left;spacingLeft=6;overflow=hidden;strokeColor=#0000CC;fontSize=12;" parent="bJsPLVLmn8eaGHgNPozO-159" vertex="1">
          <mxGeometry x="30" width="170" height="30" as="geometry">
            <mxRectangle width="170" height="30" as="alternateBounds" />
          </mxGeometry>
        </mxCell>
        <mxCell id="bJsPLVLmn8eaGHgNPozO-162" value="" style="shape=tableRow;horizontal=0;startSize=0;swimlaneHead=0;swimlaneBody=0;fillColor=none;collapsible=0;dropTarget=0;points=[[0,0.5],[1,0.5]];portConstraint=eastwest;top=0;left=0;right=0;bottom=0;strokeColor=#0000CC;fontSize=12;" parent="bJsPLVLmn8eaGHgNPozO-155" vertex="1">
          <mxGeometry y="90" width="200" height="30" as="geometry" />
        </mxCell>
        <mxCell id="bJsPLVLmn8eaGHgNPozO-163" value="" style="shape=partialRectangle;connectable=0;fillColor=none;top=0;left=0;bottom=0;right=0;editable=1;overflow=hidden;strokeColor=#0000CC;fontSize=12;" parent="bJsPLVLmn8eaGHgNPozO-162" vertex="1">
          <mxGeometry width="30" height="30" as="geometry">
            <mxRectangle width="30" height="30" as="alternateBounds" />
          </mxGeometry>
        </mxCell>
        <mxCell id="bJsPLVLmn8eaGHgNPozO-164" value="nama_belakang" style="shape=partialRectangle;connectable=0;fillColor=none;top=0;left=0;bottom=0;right=0;align=left;spacingLeft=6;overflow=hidden;strokeColor=#0000CC;fontSize=12;" parent="bJsPLVLmn8eaGHgNPozO-162" vertex="1">
          <mxGeometry x="30" width="170" height="30" as="geometry">
            <mxRectangle width="170" height="30" as="alternateBounds" />
          </mxGeometry>
        </mxCell>
        <mxCell id="bJsPLVLmn8eaGHgNPozO-165" value="" style="shape=tableRow;horizontal=0;startSize=0;swimlaneHead=0;swimlaneBody=0;fillColor=none;collapsible=0;dropTarget=0;points=[[0,0.5],[1,0.5]];portConstraint=eastwest;top=0;left=0;right=0;bottom=0;strokeColor=#0000CC;fontSize=12;" parent="bJsPLVLmn8eaGHgNPozO-155" vertex="1">
          <mxGeometry y="120" width="200" height="30" as="geometry" />
        </mxCell>
        <mxCell id="bJsPLVLmn8eaGHgNPozO-166" value="" style="shape=partialRectangle;connectable=0;fillColor=none;top=0;left=0;bottom=0;right=0;editable=1;overflow=hidden;strokeColor=#0000CC;fontSize=12;" parent="bJsPLVLmn8eaGHgNPozO-165" vertex="1">
          <mxGeometry width="30" height="30" as="geometry">
            <mxRectangle width="30" height="30" as="alternateBounds" />
          </mxGeometry>
        </mxCell>
        <mxCell id="bJsPLVLmn8eaGHgNPozO-167" value="no_paspor" style="shape=partialRectangle;connectable=0;fillColor=none;top=0;left=0;bottom=0;right=0;align=left;spacingLeft=6;overflow=hidden;strokeColor=#0000CC;fontSize=12;" parent="bJsPLVLmn8eaGHgNPozO-165" vertex="1">
          <mxGeometry x="30" width="170" height="30" as="geometry">
            <mxRectangle width="170" height="30" as="alternateBounds" />
          </mxGeometry>
        </mxCell>
        <mxCell id="bJsPLVLmn8eaGHgNPozO-168" value="" style="shape=tableRow;horizontal=0;startSize=0;swimlaneHead=0;swimlaneBody=0;fillColor=none;collapsible=0;dropTarget=0;points=[[0,0.5],[1,0.5]];portConstraint=eastwest;top=0;left=0;right=0;bottom=0;strokeColor=#0000CC;fontSize=12;" parent="bJsPLVLmn8eaGHgNPozO-155" vertex="1">
          <mxGeometry y="150" width="200" height="30" as="geometry" />
        </mxCell>
        <mxCell id="bJsPLVLmn8eaGHgNPozO-169" value="" style="shape=partialRectangle;connectable=0;fillColor=none;top=0;left=0;bottom=0;right=0;editable=1;overflow=hidden;strokeColor=#0000CC;fontSize=12;" parent="bJsPLVLmn8eaGHgNPozO-168" vertex="1">
          <mxGeometry width="30" height="30" as="geometry">
            <mxRectangle width="30" height="30" as="alternateBounds" />
          </mxGeometry>
        </mxCell>
        <mxCell id="bJsPLVLmn8eaGHgNPozO-170" value="kewarganegaraan" style="shape=partialRectangle;connectable=0;fillColor=none;top=0;left=0;bottom=0;right=0;align=left;spacingLeft=6;overflow=hidden;strokeColor=#0000CC;fontSize=12;" parent="bJsPLVLmn8eaGHgNPozO-168" vertex="1">
          <mxGeometry x="30" width="170" height="30" as="geometry">
            <mxRectangle width="170" height="30" as="alternateBounds" />
          </mxGeometry>
        </mxCell>
        <mxCell id="bJsPLVLmn8eaGHgNPozO-177" value="" style="shape=tableRow;horizontal=0;startSize=0;swimlaneHead=0;swimlaneBody=0;fillColor=none;collapsible=0;dropTarget=0;points=[[0,0.5],[1,0.5]];portConstraint=eastwest;top=0;left=0;right=0;bottom=0;strokeColor=#0000CC;fontSize=12;" parent="bJsPLVLmn8eaGHgNPozO-155" vertex="1">
          <mxGeometry y="180" width="200" height="30" as="geometry" />
        </mxCell>
        <mxCell id="bJsPLVLmn8eaGHgNPozO-178" value="" style="shape=partialRectangle;connectable=0;fillColor=none;top=0;left=0;bottom=0;right=0;editable=1;overflow=hidden;strokeColor=#0000CC;fontSize=12;" parent="bJsPLVLmn8eaGHgNPozO-177" vertex="1">
          <mxGeometry width="30" height="30" as="geometry">
            <mxRectangle width="30" height="30" as="alternateBounds" />
          </mxGeometry>
        </mxCell>
        <mxCell id="bJsPLVLmn8eaGHgNPozO-179" value="no_kursi" style="shape=partialRectangle;connectable=0;fillColor=none;top=0;left=0;bottom=0;right=0;align=left;spacingLeft=6;overflow=hidden;strokeColor=#0000CC;fontSize=12;" parent="bJsPLVLmn8eaGHgNPozO-177" vertex="1">
          <mxGeometry x="30" width="170" height="30" as="geometry">
            <mxRectangle width="170" height="30" as="alternateBounds" />
          </mxGeometry>
        </mxCell>
        <mxCell id="bJsPLVLmn8eaGHgNPozO-180" value="" style="shape=tableRow;horizontal=0;startSize=0;swimlaneHead=0;swimlaneBody=0;fillColor=none;collapsible=0;dropTarget=0;points=[[0,0.5],[1,0.5]];portConstraint=eastwest;top=0;left=0;right=0;bottom=0;strokeColor=#0000CC;fontSize=12;" parent="bJsPLVLmn8eaGHgNPozO-155" vertex="1">
          <mxGeometry y="210" width="200" height="30" as="geometry" />
        </mxCell>
        <mxCell id="bJsPLVLmn8eaGHgNPozO-181" value="" style="shape=partialRectangle;connectable=0;fillColor=none;top=0;left=0;bottom=0;right=0;editable=1;overflow=hidden;strokeColor=#0000CC;fontSize=12;" parent="bJsPLVLmn8eaGHgNPozO-180" vertex="1">
          <mxGeometry width="30" height="30" as="geometry">
            <mxRectangle width="30" height="30" as="alternateBounds" />
          </mxGeometry>
        </mxCell>
        <mxCell id="bJsPLVLmn8eaGHgNPozO-182" value="kode_layanan" style="shape=partialRectangle;connectable=0;fillColor=none;top=0;left=0;bottom=0;right=0;align=left;spacingLeft=6;overflow=hidden;strokeColor=#0000CC;fontSize=12;" parent="bJsPLVLmn8eaGHgNPozO-180" vertex="1">
          <mxGeometry x="30" width="170" height="30" as="geometry">
            <mxRectangle width="170" height="30" as="alternateBounds" />
          </mxGeometry>
        </mxCell>
        <mxCell id="P-yZzzQgmQPydBBnR9ff-1" value="" style="shape=tableRow;horizontal=0;startSize=0;swimlaneHead=0;swimlaneBody=0;fillColor=none;collapsible=0;dropTarget=0;points=[[0,0.5],[1,0.5]];portConstraint=eastwest;top=0;left=0;right=0;bottom=1;strokeColor=#0000CC;fontSize=12;" parent="bJsPLVLmn8eaGHgNPozO-155" vertex="1">
          <mxGeometry y="240" width="200" height="30" as="geometry" />
        </mxCell>
        <mxCell id="P-yZzzQgmQPydBBnR9ff-2" value="" style="shape=partialRectangle;connectable=0;fillColor=none;top=0;left=0;bottom=0;right=0;fontStyle=1;overflow=hidden;strokeColor=#0000CC;fontSize=12;" parent="P-yZzzQgmQPydBBnR9ff-1" vertex="1">
          <mxGeometry width="30" height="30" as="geometry">
            <mxRectangle width="30" height="30" as="alternateBounds" />
          </mxGeometry>
        </mxCell>
        <mxCell id="P-yZzzQgmQPydBBnR9ff-3" value="nama_depan" style="shape=partialRectangle;connectable=0;fillColor=none;top=0;left=0;bottom=0;right=0;align=left;spacingLeft=6;fontStyle=1;overflow=hidden;strokeColor=#0000CC;fontSize=12;" parent="P-yZzzQgmQPydBBnR9ff-1" vertex="1">
          <mxGeometry x="30" width="170" height="30" as="geometry">
            <mxRectangle width="170" height="30" as="alternateBounds" />
          </mxGeometry>
        </mxCell>
        <mxCell id="bJsPLVLmn8eaGHgNPozO-186" value="tujuan" style="shape=table;startSize=30;container=1;collapsible=1;childLayout=tableLayout;fixedRows=1;rowLines=0;fontStyle=1;align=center;resizeLast=1;strokeColor=#0000CC;fontSize=12;fillColor=#99FF33;" parent="1" vertex="1">
          <mxGeometry x="1010" y="1480" width="200" height="90" as="geometry" />
        </mxCell>
        <mxCell id="bJsPLVLmn8eaGHgNPozO-187" value="" style="shape=tableRow;horizontal=0;startSize=0;swimlaneHead=0;swimlaneBody=0;fillColor=none;collapsible=0;dropTarget=0;points=[[0,0.5],[1,0.5]];portConstraint=eastwest;top=0;left=0;right=0;bottom=1;strokeColor=#0000CC;fontSize=12;" parent="bJsPLVLmn8eaGHgNPozO-186" vertex="1">
          <mxGeometry y="30" width="200" height="30" as="geometry" />
        </mxCell>
        <mxCell id="bJsPLVLmn8eaGHgNPozO-188" value="PK" style="shape=partialRectangle;connectable=0;fillColor=none;top=0;left=0;bottom=0;right=0;fontStyle=1;overflow=hidden;strokeColor=#0000CC;fontSize=12;" parent="bJsPLVLmn8eaGHgNPozO-187" vertex="1">
          <mxGeometry width="30" height="30" as="geometry">
            <mxRectangle width="30" height="30" as="alternateBounds" />
          </mxGeometry>
        </mxCell>
        <mxCell id="bJsPLVLmn8eaGHgNPozO-189" value="kode_bandara_tujuan" style="shape=partialRectangle;connectable=0;fillColor=none;top=0;left=0;bottom=0;right=0;align=left;spacingLeft=6;fontStyle=5;overflow=hidden;strokeColor=#0000CC;fontSize=12;" parent="bJsPLVLmn8eaGHgNPozO-187" vertex="1">
          <mxGeometry x="30" width="170" height="30" as="geometry">
            <mxRectangle width="170" height="30" as="alternateBounds" />
          </mxGeometry>
        </mxCell>
        <mxCell id="bJsPLVLmn8eaGHgNPozO-190" value="" style="shape=tableRow;horizontal=0;startSize=0;swimlaneHead=0;swimlaneBody=0;fillColor=none;collapsible=0;dropTarget=0;points=[[0,0.5],[1,0.5]];portConstraint=eastwest;top=0;left=0;right=0;bottom=0;strokeColor=#0000CC;fontSize=12;" parent="bJsPLVLmn8eaGHgNPozO-186" vertex="1">
          <mxGeometry y="60" width="200" height="30" as="geometry" />
        </mxCell>
        <mxCell id="bJsPLVLmn8eaGHgNPozO-191" value="" style="shape=partialRectangle;connectable=0;fillColor=none;top=0;left=0;bottom=0;right=0;editable=1;overflow=hidden;strokeColor=#0000CC;fontSize=12;" parent="bJsPLVLmn8eaGHgNPozO-190" vertex="1">
          <mxGeometry width="30" height="30" as="geometry">
            <mxRectangle width="30" height="30" as="alternateBounds" />
          </mxGeometry>
        </mxCell>
        <mxCell id="bJsPLVLmn8eaGHgNPozO-192" value="tempat_tujuan" style="shape=partialRectangle;connectable=0;fillColor=none;top=0;left=0;bottom=0;right=0;align=left;spacingLeft=6;overflow=hidden;strokeColor=#0000CC;fontSize=12;" parent="bJsPLVLmn8eaGHgNPozO-190" vertex="1">
          <mxGeometry x="30" width="170" height="30" as="geometry">
            <mxRectangle width="170" height="30" as="alternateBounds" />
          </mxGeometry>
        </mxCell>
        <mxCell id="bJsPLVLmn8eaGHgNPozO-193" value="keberangkatan" style="shape=table;startSize=30;container=1;collapsible=1;childLayout=tableLayout;fixedRows=1;rowLines=0;fontStyle=1;align=center;resizeLast=1;strokeColor=#0000CC;fontSize=12;fillColor=#99FF33;" parent="1" vertex="1">
          <mxGeometry x="960" y="1320" width="220.38" height="90" as="geometry" />
        </mxCell>
        <mxCell id="bJsPLVLmn8eaGHgNPozO-194" value="" style="shape=tableRow;horizontal=0;startSize=0;swimlaneHead=0;swimlaneBody=0;fillColor=none;collapsible=0;dropTarget=0;points=[[0,0.5],[1,0.5]];portConstraint=eastwest;top=0;left=0;right=0;bottom=1;strokeColor=#0000CC;fontSize=12;" parent="bJsPLVLmn8eaGHgNPozO-193" vertex="1">
          <mxGeometry y="30" width="220.38" height="30" as="geometry" />
        </mxCell>
        <mxCell id="bJsPLVLmn8eaGHgNPozO-195" value="PK" style="shape=partialRectangle;connectable=0;fillColor=none;top=0;left=0;bottom=0;right=0;fontStyle=1;overflow=hidden;strokeColor=#0000CC;fontSize=12;" parent="bJsPLVLmn8eaGHgNPozO-194" vertex="1">
          <mxGeometry width="30" height="30" as="geometry">
            <mxRectangle width="30" height="30" as="alternateBounds" />
          </mxGeometry>
        </mxCell>
        <mxCell id="bJsPLVLmn8eaGHgNPozO-196" value="kode_bandara_keberangkatan" style="shape=partialRectangle;connectable=0;fillColor=none;top=0;left=0;bottom=0;right=0;align=left;spacingLeft=6;fontStyle=5;overflow=hidden;strokeColor=#0000CC;fontSize=12;" parent="bJsPLVLmn8eaGHgNPozO-194" vertex="1">
          <mxGeometry x="30" width="190.38" height="30" as="geometry">
            <mxRectangle width="190.38" height="30" as="alternateBounds" />
          </mxGeometry>
        </mxCell>
        <mxCell id="bJsPLVLmn8eaGHgNPozO-197" value="" style="shape=tableRow;horizontal=0;startSize=0;swimlaneHead=0;swimlaneBody=0;fillColor=none;collapsible=0;dropTarget=0;points=[[0,0.5],[1,0.5]];portConstraint=eastwest;top=0;left=0;right=0;bottom=0;strokeColor=#0000CC;fontSize=12;" parent="bJsPLVLmn8eaGHgNPozO-193" vertex="1">
          <mxGeometry y="60" width="220.38" height="30" as="geometry" />
        </mxCell>
        <mxCell id="bJsPLVLmn8eaGHgNPozO-198" value="" style="shape=partialRectangle;connectable=0;fillColor=none;top=0;left=0;bottom=0;right=0;editable=1;overflow=hidden;strokeColor=#0000CC;fontSize=12;" parent="bJsPLVLmn8eaGHgNPozO-197" vertex="1">
          <mxGeometry width="30" height="30" as="geometry">
            <mxRectangle width="30" height="30" as="alternateBounds" />
          </mxGeometry>
        </mxCell>
        <mxCell id="bJsPLVLmn8eaGHgNPozO-199" value="tempat_keberangkatan" style="shape=partialRectangle;connectable=0;fillColor=none;top=0;left=0;bottom=0;right=0;align=left;spacingLeft=6;overflow=hidden;strokeColor=#0000CC;fontSize=12;" parent="bJsPLVLmn8eaGHgNPozO-197" vertex="1">
          <mxGeometry x="30" width="190.38" height="30" as="geometry">
            <mxRectangle width="190.38" height="30" as="alternateBounds" />
          </mxGeometry>
        </mxCell>
        <mxCell id="bJsPLVLmn8eaGHgNPozO-200" value="paspor" style="shape=table;startSize=30;container=1;collapsible=1;childLayout=tableLayout;fixedRows=1;rowLines=0;fontStyle=1;align=center;resizeLast=1;strokeColor=#0000CC;fontSize=12;fillColor=#99FF33;" parent="1" vertex="1">
          <mxGeometry x="940" y="1030" width="200" height="90" as="geometry" />
        </mxCell>
        <mxCell id="bJsPLVLmn8eaGHgNPozO-201" value="" style="shape=tableRow;horizontal=0;startSize=0;swimlaneHead=0;swimlaneBody=0;fillColor=none;collapsible=0;dropTarget=0;points=[[0,0.5],[1,0.5]];portConstraint=eastwest;top=0;left=0;right=0;bottom=1;strokeColor=#0000CC;fontSize=12;" parent="bJsPLVLmn8eaGHgNPozO-200" vertex="1">
          <mxGeometry y="30" width="200" height="30" as="geometry" />
        </mxCell>
        <mxCell id="bJsPLVLmn8eaGHgNPozO-202" value="PK" style="shape=partialRectangle;connectable=0;fillColor=none;top=0;left=0;bottom=0;right=0;fontStyle=1;overflow=hidden;strokeColor=#0000CC;fontSize=12;" parent="bJsPLVLmn8eaGHgNPozO-201" vertex="1">
          <mxGeometry width="30" height="30" as="geometry">
            <mxRectangle width="30" height="30" as="alternateBounds" />
          </mxGeometry>
        </mxCell>
        <mxCell id="bJsPLVLmn8eaGHgNPozO-203" value="no_paspor" style="shape=partialRectangle;connectable=0;fillColor=none;top=0;left=0;bottom=0;right=0;align=left;spacingLeft=6;fontStyle=5;overflow=hidden;strokeColor=#0000CC;fontSize=12;" parent="bJsPLVLmn8eaGHgNPozO-201" vertex="1">
          <mxGeometry x="30" width="170" height="30" as="geometry">
            <mxRectangle width="170" height="30" as="alternateBounds" />
          </mxGeometry>
        </mxCell>
        <mxCell id="bJsPLVLmn8eaGHgNPozO-207" value="" style="shape=tableRow;horizontal=0;startSize=0;swimlaneHead=0;swimlaneBody=0;fillColor=none;collapsible=0;dropTarget=0;points=[[0,0.5],[1,0.5]];portConstraint=eastwest;top=0;left=0;right=0;bottom=0;strokeColor=#0000CC;fontSize=12;" parent="bJsPLVLmn8eaGHgNPozO-200" vertex="1">
          <mxGeometry y="60" width="200" height="30" as="geometry" />
        </mxCell>
        <mxCell id="bJsPLVLmn8eaGHgNPozO-208" value="" style="shape=partialRectangle;connectable=0;fillColor=none;top=0;left=0;bottom=0;right=0;editable=1;overflow=hidden;strokeColor=#0000CC;fontSize=12;" parent="bJsPLVLmn8eaGHgNPozO-207" vertex="1">
          <mxGeometry width="30" height="30" as="geometry">
            <mxRectangle width="30" height="30" as="alternateBounds" />
          </mxGeometry>
        </mxCell>
        <mxCell id="bJsPLVLmn8eaGHgNPozO-209" value="tanggal_kadaluarsa_paspor" style="shape=partialRectangle;connectable=0;fillColor=none;top=0;left=0;bottom=0;right=0;align=left;spacingLeft=6;overflow=hidden;strokeColor=#0000CC;fontSize=12;" parent="bJsPLVLmn8eaGHgNPozO-207" vertex="1">
          <mxGeometry x="30" width="170" height="30" as="geometry">
            <mxRectangle width="170" height="30" as="alternateBounds" />
          </mxGeometry>
        </mxCell>
        <mxCell id="bJsPLVLmn8eaGHgNPozO-210" value="penerbangan" style="shape=table;startSize=30;container=1;collapsible=1;childLayout=tableLayout;fixedRows=1;rowLines=0;fontStyle=1;align=center;resizeLast=1;strokeColor=#0000CC;fontSize=12;fillColor=#99FF33;" parent="1" vertex="1">
          <mxGeometry x="344.79" y="1390" width="200" height="150" as="geometry" />
        </mxCell>
        <mxCell id="bJsPLVLmn8eaGHgNPozO-211" value="" style="shape=tableRow;horizontal=0;startSize=0;swimlaneHead=0;swimlaneBody=0;fillColor=none;collapsible=0;dropTarget=0;points=[[0,0.5],[1,0.5]];portConstraint=eastwest;top=0;left=0;right=0;bottom=1;strokeColor=#0000CC;fontSize=12;" parent="bJsPLVLmn8eaGHgNPozO-210" vertex="1">
          <mxGeometry y="30" width="200" height="30" as="geometry" />
        </mxCell>
        <mxCell id="bJsPLVLmn8eaGHgNPozO-212" value="PK" style="shape=partialRectangle;connectable=0;fillColor=none;top=0;left=0;bottom=0;right=0;fontStyle=1;overflow=hidden;strokeColor=#0000CC;fontSize=12;" parent="bJsPLVLmn8eaGHgNPozO-211" vertex="1">
          <mxGeometry width="30.38000000000011" height="30" as="geometry">
            <mxRectangle width="30.38000000000011" height="30" as="alternateBounds" />
          </mxGeometry>
        </mxCell>
        <mxCell id="bJsPLVLmn8eaGHgNPozO-213" value="no_penerbangan" style="shape=partialRectangle;connectable=0;fillColor=none;top=0;left=0;bottom=0;right=0;align=left;spacingLeft=6;fontStyle=5;overflow=hidden;strokeColor=#0000CC;fontSize=12;" parent="bJsPLVLmn8eaGHgNPozO-211" vertex="1">
          <mxGeometry x="30.38000000000011" width="169.6199999999999" height="30" as="geometry">
            <mxRectangle width="169.6199999999999" height="30" as="alternateBounds" />
          </mxGeometry>
        </mxCell>
        <mxCell id="bJsPLVLmn8eaGHgNPozO-214" value="" style="shape=tableRow;horizontal=0;startSize=0;swimlaneHead=0;swimlaneBody=0;fillColor=none;collapsible=0;dropTarget=0;points=[[0,0.5],[1,0.5]];portConstraint=eastwest;top=0;left=0;right=0;bottom=0;strokeColor=#0000CC;fontSize=12;" parent="bJsPLVLmn8eaGHgNPozO-210" vertex="1">
          <mxGeometry y="60" width="200" height="30" as="geometry" />
        </mxCell>
        <mxCell id="bJsPLVLmn8eaGHgNPozO-215" value="" style="shape=partialRectangle;connectable=0;fillColor=none;top=0;left=0;bottom=0;right=0;editable=1;overflow=hidden;strokeColor=#0000CC;fontSize=12;" parent="bJsPLVLmn8eaGHgNPozO-214" vertex="1">
          <mxGeometry width="30.38000000000011" height="30" as="geometry">
            <mxRectangle width="30.38000000000011" height="30" as="alternateBounds" />
          </mxGeometry>
        </mxCell>
        <mxCell id="bJsPLVLmn8eaGHgNPozO-216" value="gerbang_keberangkatan" style="shape=partialRectangle;connectable=0;fillColor=none;top=0;left=0;bottom=0;right=0;align=left;spacingLeft=6;overflow=hidden;strokeColor=#0000CC;fontSize=12;" parent="bJsPLVLmn8eaGHgNPozO-214" vertex="1">
          <mxGeometry x="30.38000000000011" width="169.6199999999999" height="30" as="geometry">
            <mxRectangle width="169.6199999999999" height="30" as="alternateBounds" />
          </mxGeometry>
        </mxCell>
        <mxCell id="bJsPLVLmn8eaGHgNPozO-217" value="" style="shape=tableRow;horizontal=0;startSize=0;swimlaneHead=0;swimlaneBody=0;fillColor=none;collapsible=0;dropTarget=0;points=[[0,0.5],[1,0.5]];portConstraint=eastwest;top=0;left=0;right=0;bottom=0;strokeColor=#0000CC;fontSize=12;" parent="bJsPLVLmn8eaGHgNPozO-210" vertex="1">
          <mxGeometry y="90" width="200" height="30" as="geometry" />
        </mxCell>
        <mxCell id="bJsPLVLmn8eaGHgNPozO-218" value="" style="shape=partialRectangle;connectable=0;fillColor=none;top=0;left=0;bottom=0;right=0;editable=1;overflow=hidden;strokeColor=#0000CC;fontSize=12;" parent="bJsPLVLmn8eaGHgNPozO-217" vertex="1">
          <mxGeometry width="30.38000000000011" height="30" as="geometry">
            <mxRectangle width="30.38000000000011" height="30" as="alternateBounds" />
          </mxGeometry>
        </mxCell>
        <mxCell id="bJsPLVLmn8eaGHgNPozO-219" value="kode_bandara_keberangkatan" style="shape=partialRectangle;connectable=0;fillColor=none;top=0;left=0;bottom=0;right=0;align=left;spacingLeft=6;overflow=hidden;strokeColor=#0000CC;fontSize=12;" parent="bJsPLVLmn8eaGHgNPozO-217" vertex="1">
          <mxGeometry x="30.38000000000011" width="169.6199999999999" height="30" as="geometry">
            <mxRectangle width="169.6199999999999" height="30" as="alternateBounds" />
          </mxGeometry>
        </mxCell>
        <mxCell id="bJsPLVLmn8eaGHgNPozO-220" value="" style="shape=tableRow;horizontal=0;startSize=0;swimlaneHead=0;swimlaneBody=0;fillColor=none;collapsible=0;dropTarget=0;points=[[0,0.5],[1,0.5]];portConstraint=eastwest;top=0;left=0;right=0;bottom=0;strokeColor=#0000CC;fontSize=12;" parent="bJsPLVLmn8eaGHgNPozO-210" vertex="1">
          <mxGeometry y="120" width="200" height="30" as="geometry" />
        </mxCell>
        <mxCell id="bJsPLVLmn8eaGHgNPozO-221" value="" style="shape=partialRectangle;connectable=0;fillColor=none;top=0;left=0;bottom=0;right=0;editable=1;overflow=hidden;strokeColor=#0000CC;fontSize=12;" parent="bJsPLVLmn8eaGHgNPozO-220" vertex="1">
          <mxGeometry width="30.38000000000011" height="30" as="geometry">
            <mxRectangle width="30.38000000000011" height="30" as="alternateBounds" />
          </mxGeometry>
        </mxCell>
        <mxCell id="bJsPLVLmn8eaGHgNPozO-222" value="kode_bandara_tujuan" style="shape=partialRectangle;connectable=0;fillColor=none;top=0;left=0;bottom=0;right=0;align=left;spacingLeft=6;overflow=hidden;strokeColor=#0000CC;fontSize=12;" parent="bJsPLVLmn8eaGHgNPozO-220" vertex="1">
          <mxGeometry x="30.38000000000011" width="169.6199999999999" height="30" as="geometry">
            <mxRectangle width="169.6199999999999" height="30" as="alternateBounds" />
          </mxGeometry>
        </mxCell>
        <mxCell id="bJsPLVLmn8eaGHgNPozO-247" value="boarding_pass" style="swimlane;fontStyle=0;childLayout=stackLayout;horizontal=1;startSize=30;horizontalStack=0;resizeParent=1;resizeParentMax=0;resizeLast=0;collapsible=1;marginBottom=0;whiteSpace=wrap;html=1;" parent="1" vertex="1">
          <mxGeometry x="630" y="1090" width="200" height="150" as="geometry" />
        </mxCell>
        <mxCell id="bJsPLVLmn8eaGHgNPozO-248" value="no_booking" style="text;strokeColor=none;fillColor=none;align=left;verticalAlign=middle;spacingLeft=4;spacingRight=4;overflow=hidden;points=[[0,0.5],[1,0.5]];portConstraint=eastwest;rotatable=0;whiteSpace=wrap;html=1;" parent="bJsPLVLmn8eaGHgNPozO-247" vertex="1">
          <mxGeometry y="30" width="200" height="30" as="geometry" />
        </mxCell>
        <mxCell id="bJsPLVLmn8eaGHgNPozO-249" value="no_penerbangan" style="text;strokeColor=none;fillColor=none;align=left;verticalAlign=middle;spacingLeft=4;spacingRight=4;overflow=hidden;points=[[0,0.5],[1,0.5]];portConstraint=eastwest;rotatable=0;whiteSpace=wrap;html=1;" parent="bJsPLVLmn8eaGHgNPozO-247" vertex="1">
          <mxGeometry y="60" width="200" height="30" as="geometry" />
        </mxCell>
        <mxCell id="bJsPLVLmn8eaGHgNPozO-250" value="id_penumpang" style="text;strokeColor=none;fillColor=none;align=left;verticalAlign=middle;spacingLeft=4;spacingRight=4;overflow=hidden;points=[[0,0.5],[1,0.5]];portConstraint=eastwest;rotatable=0;whiteSpace=wrap;html=1;" parent="bJsPLVLmn8eaGHgNPozO-247" vertex="1">
          <mxGeometry y="90" width="200" height="30" as="geometry" />
        </mxCell>
        <mxCell id="bJsPLVLmn8eaGHgNPozO-251" value="no_urut_check_in" style="text;strokeColor=none;fillColor=none;align=left;verticalAlign=middle;spacingLeft=4;spacingRight=4;overflow=hidden;points=[[0,0.5],[1,0.5]];portConstraint=eastwest;rotatable=0;whiteSpace=wrap;html=1;" parent="bJsPLVLmn8eaGHgNPozO-247" vertex="1">
          <mxGeometry y="120" width="200" height="30" as="geometry" />
        </mxCell>
        <mxCell id="bJsPLVLmn8eaGHgNPozO-263" value="tempat_duduk" style="shape=table;startSize=30;container=1;collapsible=1;childLayout=tableLayout;fixedRows=1;rowLines=0;fontStyle=1;align=center;resizeLast=1;strokeColor=#0000CC;fontSize=12;fillColor=#99FF33;" parent="1" vertex="1">
          <mxGeometry x="60" y="1380" width="220.38" height="90" as="geometry" />
        </mxCell>
        <mxCell id="bJsPLVLmn8eaGHgNPozO-264" value="" style="shape=tableRow;horizontal=0;startSize=0;swimlaneHead=0;swimlaneBody=0;fillColor=none;collapsible=0;dropTarget=0;points=[[0,0.5],[1,0.5]];portConstraint=eastwest;top=0;left=0;right=0;bottom=1;strokeColor=#0000CC;fontSize=12;" parent="bJsPLVLmn8eaGHgNPozO-263" vertex="1">
          <mxGeometry y="30" width="220.38" height="30" as="geometry" />
        </mxCell>
        <mxCell id="bJsPLVLmn8eaGHgNPozO-265" value="PK" style="shape=partialRectangle;connectable=0;fillColor=none;top=0;left=0;bottom=0;right=0;fontStyle=1;overflow=hidden;strokeColor=#0000CC;fontSize=12;" parent="bJsPLVLmn8eaGHgNPozO-264" vertex="1">
          <mxGeometry width="30" height="30" as="geometry">
            <mxRectangle width="30" height="30" as="alternateBounds" />
          </mxGeometry>
        </mxCell>
        <mxCell id="bJsPLVLmn8eaGHgNPozO-266" value="no_kursi" style="shape=partialRectangle;connectable=0;fillColor=none;top=0;left=0;bottom=0;right=0;align=left;spacingLeft=6;fontStyle=5;overflow=hidden;strokeColor=#0000CC;fontSize=12;" parent="bJsPLVLmn8eaGHgNPozO-264" vertex="1">
          <mxGeometry x="30" width="190.38" height="30" as="geometry">
            <mxRectangle width="190.38" height="30" as="alternateBounds" />
          </mxGeometry>
        </mxCell>
        <mxCell id="bJsPLVLmn8eaGHgNPozO-267" value="" style="shape=tableRow;horizontal=0;startSize=0;swimlaneHead=0;swimlaneBody=0;fillColor=none;collapsible=0;dropTarget=0;points=[[0,0.5],[1,0.5]];portConstraint=eastwest;top=0;left=0;right=0;bottom=0;strokeColor=#0000CC;fontSize=12;" parent="bJsPLVLmn8eaGHgNPozO-263" vertex="1">
          <mxGeometry y="60" width="220.38" height="30" as="geometry" />
        </mxCell>
        <mxCell id="bJsPLVLmn8eaGHgNPozO-268" value="" style="shape=partialRectangle;connectable=0;fillColor=none;top=0;left=0;bottom=0;right=0;editable=1;overflow=hidden;strokeColor=#0000CC;fontSize=12;" parent="bJsPLVLmn8eaGHgNPozO-267" vertex="1">
          <mxGeometry width="30" height="30" as="geometry">
            <mxRectangle width="30" height="30" as="alternateBounds" />
          </mxGeometry>
        </mxCell>
        <mxCell id="bJsPLVLmn8eaGHgNPozO-269" value="zona" style="shape=partialRectangle;connectable=0;fillColor=none;top=0;left=0;bottom=0;right=0;align=left;spacingLeft=6;overflow=hidden;strokeColor=#0000CC;fontSize=12;" parent="bJsPLVLmn8eaGHgNPozO-267" vertex="1">
          <mxGeometry x="30" width="190.38" height="30" as="geometry">
            <mxRectangle width="190.38" height="30" as="alternateBounds" />
          </mxGeometry>
        </mxCell>
        <mxCell id="bJsPLVLmn8eaGHgNPozO-271" style="edgeStyle=orthogonalEdgeStyle;rounded=0;orthogonalLoop=1;jettySize=auto;html=1;entryX=1;entryY=0.5;entryDx=0;entryDy=0;strokeColor=#FF9933;" parent="1" source="bJsPLVLmn8eaGHgNPozO-249" target="bJsPLVLmn8eaGHgNPozO-211" edge="1">
          <mxGeometry relative="1" as="geometry" />
        </mxCell>
        <mxCell id="bJsPLVLmn8eaGHgNPozO-274" style="edgeStyle=orthogonalEdgeStyle;rounded=0;orthogonalLoop=1;jettySize=auto;html=1;exitX=1;exitY=0.5;exitDx=0;exitDy=0;entryX=0;entryY=0.5;entryDx=0;entryDy=0;strokeColor=#FF9933;" parent="1" source="bJsPLVLmn8eaGHgNPozO-177" target="bJsPLVLmn8eaGHgNPozO-264" edge="1">
          <mxGeometry relative="1" as="geometry">
            <Array as="points">
              <mxPoint x="500" y="1235" />
              <mxPoint x="500" y="1315" />
              <mxPoint x="20" y="1315" />
              <mxPoint x="20" y="1425" />
            </Array>
          </mxGeometry>
        </mxCell>
        <mxCell id="bJsPLVLmn8eaGHgNPozO-280" style="edgeStyle=orthogonalEdgeStyle;rounded=0;orthogonalLoop=1;jettySize=auto;html=1;exitX=0;exitY=0.5;exitDx=0;exitDy=0;entryX=1;entryY=0.5;entryDx=0;entryDy=0;strokeColor=#FF9933;" parent="1" source="bJsPLVLmn8eaGHgNPozO-201" target="bJsPLVLmn8eaGHgNPozO-165" edge="1">
          <mxGeometry relative="1" as="geometry">
            <Array as="points">
              <mxPoint x="520" y="1075" />
              <mxPoint x="520" y="1175" />
            </Array>
          </mxGeometry>
        </mxCell>
        <mxCell id="bJsPLVLmn8eaGHgNPozO-281" style="edgeStyle=orthogonalEdgeStyle;rounded=0;orthogonalLoop=1;jettySize=auto;html=1;entryX=0;entryY=0.5;entryDx=0;entryDy=0;strokeColor=#FF9933;" parent="1" source="bJsPLVLmn8eaGHgNPozO-220" target="bJsPLVLmn8eaGHgNPozO-187" edge="1">
          <mxGeometry relative="1" as="geometry" />
        </mxCell>
        <mxCell id="bJsPLVLmn8eaGHgNPozO-282" style="edgeStyle=orthogonalEdgeStyle;rounded=0;orthogonalLoop=1;jettySize=auto;html=1;entryX=0;entryY=0.5;entryDx=0;entryDy=0;strokeColor=#FF9933;" parent="1" source="bJsPLVLmn8eaGHgNPozO-217" target="bJsPLVLmn8eaGHgNPozO-194" edge="1">
          <mxGeometry relative="1" as="geometry" />
        </mxCell>
        <mxCell id="bJsPLVLmn8eaGHgNPozO-284" value="layanan" style="shape=table;startSize=30;container=1;collapsible=1;childLayout=tableLayout;fixedRows=1;rowLines=0;fontStyle=1;align=center;resizeLast=1;strokeColor=#0000CC;fontSize=12;fillColor=#99FF33;" parent="1" vertex="1">
          <mxGeometry x="311.23" y="920" width="200" height="90" as="geometry" />
        </mxCell>
        <mxCell id="bJsPLVLmn8eaGHgNPozO-285" value="" style="shape=tableRow;horizontal=0;startSize=0;swimlaneHead=0;swimlaneBody=0;fillColor=none;collapsible=0;dropTarget=0;points=[[0,0.5],[1,0.5]];portConstraint=eastwest;top=0;left=0;right=0;bottom=1;strokeColor=#0000CC;fontSize=12;" parent="bJsPLVLmn8eaGHgNPozO-284" vertex="1">
          <mxGeometry y="30" width="200" height="30" as="geometry" />
        </mxCell>
        <mxCell id="bJsPLVLmn8eaGHgNPozO-286" value="PK" style="shape=partialRectangle;connectable=0;fillColor=none;top=0;left=0;bottom=0;right=0;fontStyle=1;overflow=hidden;strokeColor=#0000CC;fontSize=12;" parent="bJsPLVLmn8eaGHgNPozO-285" vertex="1">
          <mxGeometry width="30" height="30" as="geometry">
            <mxRectangle width="30" height="30" as="alternateBounds" />
          </mxGeometry>
        </mxCell>
        <mxCell id="bJsPLVLmn8eaGHgNPozO-287" value="kode_layanan" style="shape=partialRectangle;connectable=0;fillColor=none;top=0;left=0;bottom=0;right=0;align=left;spacingLeft=6;fontStyle=5;overflow=hidden;strokeColor=#0000CC;fontSize=12;" parent="bJsPLVLmn8eaGHgNPozO-285" vertex="1">
          <mxGeometry x="30" width="170" height="30" as="geometry">
            <mxRectangle width="170" height="30" as="alternateBounds" />
          </mxGeometry>
        </mxCell>
        <mxCell id="bJsPLVLmn8eaGHgNPozO-288" value="" style="shape=tableRow;horizontal=0;startSize=0;swimlaneHead=0;swimlaneBody=0;fillColor=none;collapsible=0;dropTarget=0;points=[[0,0.5],[1,0.5]];portConstraint=eastwest;top=0;left=0;right=0;bottom=0;strokeColor=#0000CC;fontSize=12;" parent="bJsPLVLmn8eaGHgNPozO-284" vertex="1">
          <mxGeometry y="60" width="200" height="30" as="geometry" />
        </mxCell>
        <mxCell id="bJsPLVLmn8eaGHgNPozO-289" value="" style="shape=partialRectangle;connectable=0;fillColor=none;top=0;left=0;bottom=0;right=0;editable=1;overflow=hidden;strokeColor=#0000CC;fontSize=12;" parent="bJsPLVLmn8eaGHgNPozO-288" vertex="1">
          <mxGeometry width="30" height="30" as="geometry">
            <mxRectangle width="30" height="30" as="alternateBounds" />
          </mxGeometry>
        </mxCell>
        <mxCell id="bJsPLVLmn8eaGHgNPozO-290" value="jenis_layanan" style="shape=partialRectangle;connectable=0;fillColor=none;top=0;left=0;bottom=0;right=0;align=left;spacingLeft=6;overflow=hidden;strokeColor=#0000CC;fontSize=12;" parent="bJsPLVLmn8eaGHgNPozO-288" vertex="1">
          <mxGeometry x="30" width="170" height="30" as="geometry">
            <mxRectangle width="170" height="30" as="alternateBounds" />
          </mxGeometry>
        </mxCell>
        <mxCell id="bJsPLVLmn8eaGHgNPozO-291" style="edgeStyle=orthogonalEdgeStyle;rounded=0;orthogonalLoop=1;jettySize=auto;html=1;strokeColor=#FF9933;" parent="1" source="bJsPLVLmn8eaGHgNPozO-180" target="bJsPLVLmn8eaGHgNPozO-285" edge="1">
          <mxGeometry relative="1" as="geometry" />
        </mxCell>
        <mxCell id="D7hMj3AG1V0tf8wTW78q-66" value="Dependensi Transitif" style="text;html=1;align=center;verticalAlign=middle;resizable=0;points=[];autosize=1;strokeColor=none;fillColor=none;fontSize=12;" parent="1" vertex="1">
          <mxGeometry x="410" y="430" width="130" height="30" as="geometry" />
        </mxCell>
        <mxCell id="D7hMj3AG1V0tf8wTW78q-67" value="Dependensi Sebagian" style="text;html=1;align=center;verticalAlign=middle;resizable=0;points=[];autosize=1;strokeColor=none;fillColor=none;fontSize=12;" parent="1" vertex="1">
          <mxGeometry x="416.4" y="330" width="140" height="30" as="geometry" />
        </mxCell>
        <mxCell id="D7hMj3AG1V0tf8wTW78q-1" value="no_&lt;br&gt;booking" style="rounded=0;whiteSpace=wrap;html=1;fillColor=#FF3333;" parent="1" vertex="1">
          <mxGeometry x="40" y="212" width="90.41095890410956" height="78" as="geometry" />
        </mxCell>
        <mxCell id="D7hMj3AG1V0tf8wTW78q-2" value="no_&lt;br&gt;penerbangan" style="rounded=0;whiteSpace=wrap;html=1;fillColor=#99FF33;" parent="1" vertex="1">
          <mxGeometry x="130.41095890410958" y="212" width="90.41095890410956" height="78" as="geometry" />
        </mxCell>
        <mxCell id="D7hMj3AG1V0tf8wTW78q-4" value="no_zona" style="rounded=0;whiteSpace=wrap;html=1;" parent="1" vertex="1">
          <mxGeometry x="220.82191780821913" y="212" width="90.41095890410956" height="78" as="geometry" />
        </mxCell>
        <mxCell id="D7hMj3AG1V0tf8wTW78q-5" value="&lt;font style=&quot;font-size: 12px;&quot;&gt;gerbang_&lt;br&gt;keberangkatan&lt;/font&gt;" style="rounded=0;whiteSpace=wrap;html=1;" parent="1" vertex="1">
          <mxGeometry x="311.2328767123287" y="212" width="116.78082191780818" height="78" as="geometry" />
        </mxCell>
        <mxCell id="D7hMj3AG1V0tf8wTW78q-60" style="edgeStyle=orthogonalEdgeStyle;rounded=0;orthogonalLoop=1;jettySize=auto;html=1;exitX=0.5;exitY=1;exitDx=0;exitDy=0;entryX=0.5;entryY=1;entryDx=0;entryDy=0;strokeColor=#FF9933;fontSize=12;fillColor=#CC0000;" parent="1" source="D7hMj3AG1V0tf8wTW78q-2" target="D7hMj3AG1V0tf8wTW78q-5" edge="1">
          <mxGeometry relative="1" as="geometry">
            <Array as="points">
              <mxPoint x="176" y="330" />
              <mxPoint x="370" y="330" />
            </Array>
          </mxGeometry>
        </mxCell>
        <mxCell id="D7hMj3AG1V0tf8wTW78q-8" value="no_&lt;br&gt;urut_&lt;br&gt;check_&lt;br&gt;in" style="rounded=0;whiteSpace=wrap;html=1;" parent="1" vertex="1">
          <mxGeometry x="428.01369863013684" y="212" width="116.78082191780818" height="78" as="geometry" />
        </mxCell>
        <mxCell id="D7hMj3AG1V0tf8wTW78q-9" value="nama_&lt;br&gt;depan" style="rounded=0;whiteSpace=wrap;html=1;" parent="1" vertex="1">
          <mxGeometry x="544.79" y="212" width="65.21" height="78" as="geometry" />
        </mxCell>
        <mxCell id="D7hMj3AG1V0tf8wTW78q-64" style="edgeStyle=orthogonalEdgeStyle;rounded=0;orthogonalLoop=1;jettySize=auto;html=1;entryX=0.5;entryY=1;entryDx=0;entryDy=0;strokeColor=#0000CC;fontSize=12;fillColor=#CC0000;" parent="1" target="D7hMj3AG1V0tf8wTW78q-4" edge="1">
          <mxGeometry relative="1" as="geometry">
            <Array as="points">
              <mxPoint x="840" y="290" />
              <mxPoint x="840" y="420" />
              <mxPoint x="266" y="420" />
            </Array>
            <mxPoint x="840" y="320" as="sourcePoint" />
          </mxGeometry>
        </mxCell>
        <mxCell id="D7hMj3AG1V0tf8wTW78q-10" value="no_&lt;br&gt;kursi" style="rounded=0;whiteSpace=wrap;html=1;" parent="1" vertex="1">
          <mxGeometry x="726.7853424657532" y="212" width="116.78082191780818" height="78" as="geometry" />
        </mxCell>
        <mxCell id="D7hMj3AG1V0tf8wTW78q-55" style="edgeStyle=orthogonalEdgeStyle;rounded=0;orthogonalLoop=1;jettySize=auto;html=1;exitX=0.5;exitY=1;exitDx=0;exitDy=0;strokeColor=#FF9933;fontSize=12;fillColor=#CC0000;" parent="1" source="D7hMj3AG1V0tf8wTW78q-1" target="D7hMj3AG1V0tf8wTW78q-10" edge="1">
          <mxGeometry relative="1" as="geometry">
            <Array as="points">
              <mxPoint x="85" y="360" />
              <mxPoint x="770" y="360" />
            </Array>
          </mxGeometry>
        </mxCell>
        <mxCell id="D7hMj3AG1V0tf8wTW78q-59" style="edgeStyle=orthogonalEdgeStyle;rounded=0;orthogonalLoop=1;jettySize=auto;html=1;exitX=0.5;exitY=1;exitDx=0;exitDy=0;entryX=0.5;entryY=1;entryDx=0;entryDy=0;strokeColor=#FF9933;fontSize=12;fillColor=#CC0000;" parent="1" source="D7hMj3AG1V0tf8wTW78q-9" target="D7hMj3AG1V0tf8wTW78q-10" edge="1">
          <mxGeometry relative="1" as="geometry">
            <Array as="points">
              <mxPoint x="603" y="310" />
              <mxPoint x="837" y="310" />
            </Array>
          </mxGeometry>
        </mxCell>
        <mxCell id="D7hMj3AG1V0tf8wTW78q-11" value="no_&lt;br&gt;paspor" style="rounded=0;whiteSpace=wrap;html=1;" parent="1" vertex="1">
          <mxGeometry x="843.5661643835614" y="212" width="116.78082191780818" height="78" as="geometry" />
        </mxCell>
        <mxCell id="D7hMj3AG1V0tf8wTW78q-61" style="edgeStyle=orthogonalEdgeStyle;rounded=0;orthogonalLoop=1;jettySize=auto;html=1;strokeColor=#FF9933;fontSize=12;fillColor=#CC0000;" parent="1" edge="1">
          <mxGeometry relative="1" as="geometry">
            <Array as="points">
              <mxPoint x="580" y="380" />
              <mxPoint x="910" y="380" />
              <mxPoint x="910" y="290" />
            </Array>
            <mxPoint x="580" y="290" as="sourcePoint" />
            <mxPoint x="910" y="290" as="targetPoint" />
          </mxGeometry>
        </mxCell>
        <mxCell id="D7hMj3AG1V0tf8wTW78q-12" value="kewarganegaraan" style="rounded=0;whiteSpace=wrap;html=1;" parent="1" vertex="1">
          <mxGeometry x="959.9969863013696" y="212" width="116.78082191780818" height="78" as="geometry" />
        </mxCell>
        <mxCell id="D7hMj3AG1V0tf8wTW78q-62" style="edgeStyle=orthogonalEdgeStyle;rounded=0;orthogonalLoop=1;jettySize=auto;html=1;entryX=0.5;entryY=1;entryDx=0;entryDy=0;strokeColor=#FF9933;fontSize=12;fillColor=#CC0000;" parent="1" target="D7hMj3AG1V0tf8wTW78q-12" edge="1">
          <mxGeometry relative="1" as="geometry">
            <Array as="points">
              <mxPoint x="600" y="290" />
              <mxPoint x="600" y="380" />
              <mxPoint x="1070" y="380" />
            </Array>
            <mxPoint x="600" y="290" as="sourcePoint" />
          </mxGeometry>
        </mxCell>
        <mxCell id="D7hMj3AG1V0tf8wTW78q-13" value="tanggal_&lt;br&gt;kadaluarsa_paspor" style="rounded=0;whiteSpace=wrap;html=1;" parent="1" vertex="1">
          <mxGeometry x="1076.7778082191776" y="212" width="128.0821917808219" height="78" as="geometry" />
        </mxCell>
        <mxCell id="D7hMj3AG1V0tf8wTW78q-63" style="edgeStyle=orthogonalEdgeStyle;rounded=0;orthogonalLoop=1;jettySize=auto;html=1;entryX=0.5;entryY=1;entryDx=0;entryDy=0;strokeColor=#FF9933;fontSize=12;fillColor=#CC0000;" parent="1" target="D7hMj3AG1V0tf8wTW78q-13" edge="1">
          <mxGeometry relative="1" as="geometry">
            <Array as="points">
              <mxPoint x="570" y="290" />
              <mxPoint x="570" y="380" />
              <mxPoint x="1193" y="380" />
            </Array>
            <mxPoint x="570" y="290" as="sourcePoint" />
          </mxGeometry>
        </mxCell>
        <mxCell id="D7hMj3AG1V0tf8wTW78q-29" value="" style="endArrow=none;html=1;rounded=0;strokeColor=#000000;fillColor=#CC0000;" parent="1" edge="1">
          <mxGeometry width="50" height="50" relative="1" as="geometry">
            <mxPoint x="85.20547945205479" y="212" as="sourcePoint" />
            <mxPoint x="85.20547945205479" y="160" as="targetPoint" />
          </mxGeometry>
        </mxCell>
        <mxCell id="D7hMj3AG1V0tf8wTW78q-31" value="" style="endArrow=none;html=1;rounded=0;strokeColor=#000000;fillColor=#CC0000;" parent="1" edge="1">
          <mxGeometry width="50" height="50" relative="1" as="geometry">
            <mxPoint x="85.20547945205479" y="160" as="sourcePoint" />
            <mxPoint x="175.61643835616434" y="160" as="targetPoint" />
          </mxGeometry>
        </mxCell>
        <mxCell id="D7hMj3AG1V0tf8wTW78q-35" value="" style="endArrow=classic;html=1;rounded=0;strokeColor=#000000;fillColor=#CC0000;edgeStyle=orthogonalEdgeStyle;entryX=0.5;entryY=0;entryDx=0;entryDy=0;" parent="1" target="D7hMj3AG1V0tf8wTW78q-4" edge="1">
          <mxGeometry width="50" height="50" relative="1" as="geometry">
            <mxPoint x="175.61643835616434" y="160" as="sourcePoint" />
            <mxPoint x="250.95890410958899" y="160" as="targetPoint" />
          </mxGeometry>
        </mxCell>
        <mxCell id="D7hMj3AG1V0tf8wTW78q-37" value="" style="endArrow=classic;html=1;rounded=0;strokeColor=#000000;fillColor=#CC0000;entryX=0.5;entryY=0;entryDx=0;entryDy=0;edgeStyle=orthogonalEdgeStyle;" parent="1" target="D7hMj3AG1V0tf8wTW78q-8" edge="1">
          <mxGeometry width="50" height="50" relative="1" as="geometry">
            <mxPoint x="341.3698630136986" y="160" as="sourcePoint" />
            <mxPoint x="537.2602739726026" y="316" as="targetPoint" />
          </mxGeometry>
        </mxCell>
        <mxCell id="D7hMj3AG1V0tf8wTW78q-38" value="" style="endArrow=classic;html=1;rounded=0;strokeColor=#000000;fillColor=#CC0000;entryX=0.5;entryY=0;entryDx=0;entryDy=0;edgeStyle=orthogonalEdgeStyle;" parent="1" target="D7hMj3AG1V0tf8wTW78q-9" edge="1">
          <mxGeometry width="50" height="50" relative="1" as="geometry">
            <mxPoint x="484.5205479452054" y="160" as="sourcePoint" />
            <mxPoint x="785.8904109589039" y="316" as="targetPoint" />
          </mxGeometry>
        </mxCell>
        <mxCell id="D7hMj3AG1V0tf8wTW78q-40" value="" style="endArrow=classic;html=1;rounded=0;strokeColor=#000000;fillColor=#CC0000;entryX=0.5;entryY=0;entryDx=0;entryDy=0;edgeStyle=orthogonalEdgeStyle;" parent="1" target="D7hMj3AG1V0tf8wTW78q-11" edge="1">
          <mxGeometry width="50" height="50" relative="1" as="geometry">
            <mxPoint x="718.0821917808217" y="160" as="sourcePoint" />
            <mxPoint x="770.821917808219" y="95" as="targetPoint" />
          </mxGeometry>
        </mxCell>
        <mxCell id="D7hMj3AG1V0tf8wTW78q-41" value="" style="endArrow=classic;html=1;rounded=0;strokeColor=#000000;fillColor=#CC0000;entryX=0.5;entryY=0;entryDx=0;entryDy=0;edgeStyle=orthogonalEdgeStyle;" parent="1" target="D7hMj3AG1V0tf8wTW78q-10" edge="1">
          <mxGeometry width="50" height="50" relative="1" as="geometry">
            <mxPoint x="560" y="160" as="sourcePoint" />
            <mxPoint x="642.7397260273972" y="95" as="targetPoint" />
            <Array as="points">
              <mxPoint x="785" y="160" />
            </Array>
          </mxGeometry>
        </mxCell>
        <mxCell id="D7hMj3AG1V0tf8wTW78q-42" value="" style="endArrow=classic;html=1;rounded=0;strokeColor=#000000;fillColor=#CC0000;entryX=0.5;entryY=0;entryDx=0;entryDy=0;edgeStyle=orthogonalEdgeStyle;" parent="1" target="D7hMj3AG1V0tf8wTW78q-12" edge="1">
          <mxGeometry width="50" height="50" relative="1" as="geometry">
            <mxPoint x="823.5616438356163" y="160" as="sourcePoint" />
            <mxPoint x="906.4383561643833" y="108" as="targetPoint" />
          </mxGeometry>
        </mxCell>
        <mxCell id="D7hMj3AG1V0tf8wTW78q-43" value="" style="endArrow=classic;html=1;rounded=0;strokeColor=#000000;fillColor=#CC0000;entryX=0.5;entryY=0;entryDx=0;entryDy=0;edgeStyle=orthogonalEdgeStyle;" parent="1" target="D7hMj3AG1V0tf8wTW78q-13" edge="1">
          <mxGeometry width="50" height="50" relative="1" as="geometry">
            <mxPoint x="944.1095890410955" y="160" as="sourcePoint" />
            <mxPoint x="1042.0547945205476" y="95" as="targetPoint" />
          </mxGeometry>
        </mxCell>
        <mxCell id="D7hMj3AG1V0tf8wTW78q-46" value="" style="endArrow=classic;html=1;rounded=0;strokeColor=#000000;fillColor=#CC0000;entryX=0.5;entryY=0;entryDx=0;entryDy=0;" parent="1" target="D7hMj3AG1V0tf8wTW78q-5" edge="1">
          <mxGeometry width="50" height="50" relative="1" as="geometry">
            <mxPoint x="266.0273972602739" y="160" as="sourcePoint" />
            <mxPoint x="326.3013698630136" y="316" as="targetPoint" />
            <Array as="points">
              <mxPoint x="369.9999999999999" y="160" />
            </Array>
          </mxGeometry>
        </mxCell>
        <mxCell id="D7hMj3AG1V0tf8wTW78q-81" value="" style="endArrow=classic;html=1;rounded=0;strokeColor=#000000;fontSize=12;fillColor=#CC0000;entryX=0.5;entryY=0;entryDx=0;entryDy=0;" parent="1" target="D7hMj3AG1V0tf8wTW78q-2" edge="1">
          <mxGeometry width="50" height="50" relative="1" as="geometry">
            <mxPoint x="176" y="160" as="sourcePoint" />
            <mxPoint x="660" y="190" as="targetPoint" />
          </mxGeometry>
        </mxCell>
        <mxCell id="bJsPLVLmn8eaGHgNPozO-1" value="tempat_&lt;br&gt;keberangkatan" style="rounded=0;whiteSpace=wrap;html=1;" parent="1" vertex="1">
          <mxGeometry x="1204.8628767123284" y="212" width="116.78082191780818" height="78" as="geometry" />
        </mxCell>
        <mxCell id="bJsPLVLmn8eaGHgNPozO-10" style="edgeStyle=orthogonalEdgeStyle;rounded=0;orthogonalLoop=1;jettySize=auto;html=1;exitX=0.5;exitY=1;exitDx=0;exitDy=0;entryX=0.5;entryY=1;entryDx=0;entryDy=0;strokeColor=#FF9933;" parent="1" source="D7hMj3AG1V0tf8wTW78q-2" target="bJsPLVLmn8eaGHgNPozO-1" edge="1">
          <mxGeometry relative="1" as="geometry">
            <Array as="points">
              <mxPoint x="176" y="390" />
              <mxPoint x="1263" y="390" />
            </Array>
          </mxGeometry>
        </mxCell>
        <mxCell id="bJsPLVLmn8eaGHgNPozO-2" value="tempat_&lt;br&gt;tujuan" style="rounded=0;whiteSpace=wrap;html=1;" parent="1" vertex="1">
          <mxGeometry x="1418.0828767123285" y="212" width="116.78082191780818" height="78" as="geometry" />
        </mxCell>
        <mxCell id="bJsPLVLmn8eaGHgNPozO-11" style="edgeStyle=orthogonalEdgeStyle;rounded=0;orthogonalLoop=1;jettySize=auto;html=1;exitX=0.5;exitY=1;exitDx=0;exitDy=0;entryX=0.5;entryY=1;entryDx=0;entryDy=0;strokeColor=#FF9933;" parent="1" source="D7hMj3AG1V0tf8wTW78q-2" target="bJsPLVLmn8eaGHgNPozO-2" edge="1">
          <mxGeometry relative="1" as="geometry">
            <Array as="points">
              <mxPoint x="176" y="390" />
              <mxPoint x="1476" y="390" />
              <mxPoint x="1476" y="290" />
            </Array>
          </mxGeometry>
        </mxCell>
        <mxCell id="P-yZzzQgmQPydBBnR9ff-9" style="edgeStyle=orthogonalEdgeStyle;rounded=0;orthogonalLoop=1;jettySize=auto;html=1;exitX=0.5;exitY=1;exitDx=0;exitDy=0;strokeColor=#0000CC;entryX=0.75;entryY=1;entryDx=0;entryDy=0;" parent="1" source="bJsPLVLmn8eaGHgNPozO-3" target="bJsPLVLmn8eaGHgNPozO-1" edge="1">
          <mxGeometry relative="1" as="geometry">
            <mxPoint x="1350" y="310" as="targetPoint" />
            <Array as="points">
              <mxPoint x="1370" y="440" />
              <mxPoint x="1292" y="440" />
            </Array>
          </mxGeometry>
        </mxCell>
        <mxCell id="bJsPLVLmn8eaGHgNPozO-3" value="kode_&lt;br&gt;bandara_&lt;br&gt;keberangkatan" style="rounded=0;whiteSpace=wrap;html=1;" parent="1" vertex="1">
          <mxGeometry x="1321.6399999999999" y="212" width="96.44" height="78" as="geometry" />
        </mxCell>
        <mxCell id="P-yZzzQgmQPydBBnR9ff-8" style="edgeStyle=orthogonalEdgeStyle;rounded=0;orthogonalLoop=1;jettySize=auto;html=1;exitX=0.5;exitY=1;exitDx=0;exitDy=0;strokeColor=#0000CC;entryX=0.569;entryY=1.004;entryDx=0;entryDy=0;entryPerimeter=0;" parent="1" source="bJsPLVLmn8eaGHgNPozO-4" target="bJsPLVLmn8eaGHgNPozO-2" edge="1">
          <mxGeometry relative="1" as="geometry">
            <mxPoint x="1650" y="310" as="targetPoint" />
            <Array as="points">
              <mxPoint x="1570" y="290" />
              <mxPoint x="1570" y="440" />
              <mxPoint x="1485" y="440" />
              <mxPoint x="1485" y="290" />
            </Array>
          </mxGeometry>
        </mxCell>
        <mxCell id="bJsPLVLmn8eaGHgNPozO-4" value="kode_&lt;br&gt;bandara_&lt;br&gt;tujuan" style="rounded=0;whiteSpace=wrap;html=1;" parent="1" vertex="1">
          <mxGeometry x="1534.86" y="212" width="103.22" height="78" as="geometry" />
        </mxCell>
        <mxCell id="bJsPLVLmn8eaGHgNPozO-5" value="" style="endArrow=classic;html=1;rounded=0;entryX=0.5;entryY=0;entryDx=0;entryDy=0;edgeStyle=orthogonalEdgeStyle;" parent="1" target="bJsPLVLmn8eaGHgNPozO-1" edge="1">
          <mxGeometry width="50" height="50" relative="1" as="geometry">
            <mxPoint x="1050" y="160" as="sourcePoint" />
            <mxPoint x="1470" y="240" as="targetPoint" />
          </mxGeometry>
        </mxCell>
        <mxCell id="bJsPLVLmn8eaGHgNPozO-6" value="" style="endArrow=classic;html=1;rounded=0;edgeStyle=orthogonalEdgeStyle;entryX=0.558;entryY=0.026;entryDx=0;entryDy=0;entryPerimeter=0;" parent="1" target="bJsPLVLmn8eaGHgNPozO-3" edge="1">
          <mxGeometry width="50" height="50" relative="1" as="geometry">
            <mxPoint x="1200" y="160" as="sourcePoint" />
            <mxPoint x="1360" y="210" as="targetPoint" />
          </mxGeometry>
        </mxCell>
        <mxCell id="bJsPLVLmn8eaGHgNPozO-7" value="" style="endArrow=classic;html=1;rounded=0;entryX=0.5;entryY=0;entryDx=0;entryDy=0;edgeStyle=orthogonalEdgeStyle;" parent="1" target="bJsPLVLmn8eaGHgNPozO-2" edge="1">
          <mxGeometry width="50" height="50" relative="1" as="geometry">
            <mxPoint x="1370" y="160" as="sourcePoint" />
            <mxPoint x="1460" y="240" as="targetPoint" />
          </mxGeometry>
        </mxCell>
        <mxCell id="bJsPLVLmn8eaGHgNPozO-8" value="" style="endArrow=classic;html=1;rounded=0;entryX=0.5;entryY=0;entryDx=0;entryDy=0;edgeStyle=orthogonalEdgeStyle;" parent="1" target="bJsPLVLmn8eaGHgNPozO-4" edge="1">
          <mxGeometry width="50" height="50" relative="1" as="geometry">
            <mxPoint x="1470" y="160" as="sourcePoint" />
            <mxPoint x="1460" y="240" as="targetPoint" />
          </mxGeometry>
        </mxCell>
        <mxCell id="bJsPLVLmn8eaGHgNPozO-283" value="nama_&lt;br&gt;belakang" style="rounded=0;whiteSpace=wrap;html=1;" parent="1" vertex="1">
          <mxGeometry x="610.0045205479449" y="212" width="116.78082191780818" height="78" as="geometry" />
        </mxCell>
        <mxCell id="P-yZzzQgmQPydBBnR9ff-4" value="kode_&lt;br&gt;pelayanan" style="rounded=0;whiteSpace=wrap;html=1;" parent="1" vertex="1">
          <mxGeometry x="1638.08" y="212" width="80" height="78" as="geometry" />
        </mxCell>
        <mxCell id="P-yZzzQgmQPydBBnR9ff-5" value="" style="endArrow=classic;html=1;rounded=0;entryX=0.5;entryY=0;entryDx=0;entryDy=0;" parent="1" target="P-yZzzQgmQPydBBnR9ff-4" edge="1">
          <mxGeometry width="50" height="50" relative="1" as="geometry">
            <mxPoint x="1430" y="160" as="sourcePoint" />
            <mxPoint x="1740" y="360" as="targetPoint" />
            <Array as="points">
              <mxPoint x="1678" y="160" />
            </Array>
          </mxGeometry>
        </mxCell>
        <mxCell id="P-yZzzQgmQPydBBnR9ff-12" value="" style="endArrow=classic;html=1;rounded=0;strokeColor=#FF9933;entryX=0.413;entryY=1.012;entryDx=0;entryDy=0;entryPerimeter=0;" parent="1" target="bJsPLVLmn8eaGHgNPozO-3" edge="1">
          <mxGeometry width="50" height="50" relative="1" as="geometry">
            <mxPoint x="1400" y="390" as="sourcePoint" />
            <mxPoint x="1450" y="340" as="targetPoint" />
            <Array as="points">
              <mxPoint x="1360" y="390" />
            </Array>
          </mxGeometry>
        </mxCell>
        <mxCell id="P-yZzzQgmQPydBBnR9ff-16" value="" style="endArrow=classic;html=1;rounded=0;strokeColor=#FF9933;edgeStyle=orthogonalEdgeStyle;" parent="1" edge="1">
          <mxGeometry width="50" height="50" relative="1" as="geometry">
            <mxPoint x="1130" y="380" as="sourcePoint" />
            <mxPoint x="1678" y="290" as="targetPoint" />
            <Array as="points">
              <mxPoint x="1678" y="380" />
            </Array>
          </mxGeometry>
        </mxCell>
        <mxCell id="P-yZzzQgmQPydBBnR9ff-17" value="Primary Key" style="text;html=1;align=center;verticalAlign=middle;resizable=0;points=[];autosize=1;strokeColor=none;fillColor=none;" parent="1" vertex="1">
          <mxGeometry x="55" y="115" width="90" height="30" as="geometry" />
        </mxCell>
        <mxCell id="P-yZzzQgmQPydBBnR9ff-19" value="" style="endArrow=classic;html=1;rounded=0;strokeColor=#FF9933;entryX=0.5;entryY=1;entryDx=0;entryDy=0;edgeStyle=orthogonalEdgeStyle;" parent="1" target="bJsPLVLmn8eaGHgNPozO-4" edge="1">
          <mxGeometry width="50" height="50" relative="1" as="geometry">
            <mxPoint x="1470" y="390" as="sourcePoint" />
            <mxPoint x="1650" y="280" as="targetPoint" />
          </mxGeometry>
        </mxCell>
        <mxCell id="E1PFWa7fSxWODHGBN-EQ-1" style="edgeStyle=orthogonalEdgeStyle;rounded=0;orthogonalLoop=1;jettySize=auto;html=1;exitX=1;exitY=0.5;exitDx=0;exitDy=0;entryX=0;entryY=0.5;entryDx=0;entryDy=0;strokeColor=#FF8000;" edge="1" parent="1" source="bJsPLVLmn8eaGHgNPozO-156" target="bJsPLVLmn8eaGHgNPozO-250">
          <mxGeometry relative="1" as="geometry" />
        </mxCell>
        <mxCell id="E1PFWa7fSxWODHGBN-EQ-2" style="edgeStyle=orthogonalEdgeStyle;rounded=0;orthogonalLoop=1;jettySize=auto;html=1;exitX=0;exitY=0.5;exitDx=0;exitDy=0;entryX=1;entryY=0.5;entryDx=0;entryDy=0;strokeColor=#FF8000;" edge="1" parent="1" source="bJsPLVLmn8eaGHgNPozO-248" target="bJsPLVLmn8eaGHgNPozO-159">
          <mxGeometry relative="1" as="geometry" />
        </mxCell>
      </root>
    </mxGraphModel>
  </diagram>
  <diagram id="qKPys6jrDEClIEahbrAe" name="Page-2">
    <mxGraphModel dx="1743" dy="722" grid="1" gridSize="10" guides="1" tooltips="1" connect="1" arrows="1" fold="1" page="1" pageScale="1" pageWidth="1169" pageHeight="827" math="0" shadow="0">
      <root>
        <mxCell id="0" />
        <mxCell id="1" parent="0" />
        <mxCell id="2sixpxUlGnC8m-W_eR1r-87" value="" style="group" vertex="1" connectable="0" parent="1">
          <mxGeometry x="200" y="120" width="1190" height="650" as="geometry" />
        </mxCell>
        <mxCell id="2sixpxUlGnC8m-W_eR1r-1" value="penumpang" style="shape=table;startSize=30;container=1;collapsible=1;childLayout=tableLayout;fixedRows=1;rowLines=0;fontStyle=1;align=center;resizeLast=1;strokeColor=#0000CC;fontSize=12;fillColor=#99FF33;" vertex="1" parent="2sixpxUlGnC8m-W_eR1r-87">
          <mxGeometry x="30" y="120" width="200" height="270" as="geometry" />
        </mxCell>
        <mxCell id="2sixpxUlGnC8m-W_eR1r-2" value="" style="shape=tableRow;horizontal=0;startSize=0;swimlaneHead=0;swimlaneBody=0;fillColor=none;collapsible=0;dropTarget=0;points=[[0,0.5],[1,0.5]];portConstraint=eastwest;top=0;left=0;right=0;bottom=1;strokeColor=#0000CC;fontSize=12;" vertex="1" parent="2sixpxUlGnC8m-W_eR1r-1">
          <mxGeometry y="30" width="200" height="30" as="geometry" />
        </mxCell>
        <mxCell id="2sixpxUlGnC8m-W_eR1r-3" value="PK" style="shape=partialRectangle;connectable=0;fillColor=none;top=0;left=0;bottom=0;right=0;fontStyle=1;overflow=hidden;strokeColor=#0000CC;fontSize=12;" vertex="1" parent="2sixpxUlGnC8m-W_eR1r-2">
          <mxGeometry width="30" height="30" as="geometry">
            <mxRectangle width="30" height="30" as="alternateBounds" />
          </mxGeometry>
        </mxCell>
        <mxCell id="2sixpxUlGnC8m-W_eR1r-4" value="id_penumpang" style="shape=partialRectangle;connectable=0;fillColor=none;top=0;left=0;bottom=0;right=0;align=left;spacingLeft=6;fontStyle=5;overflow=hidden;strokeColor=#0000CC;fontSize=12;" vertex="1" parent="2sixpxUlGnC8m-W_eR1r-2">
          <mxGeometry x="30" width="170" height="30" as="geometry">
            <mxRectangle width="170" height="30" as="alternateBounds" />
          </mxGeometry>
        </mxCell>
        <mxCell id="2sixpxUlGnC8m-W_eR1r-5" value="" style="shape=tableRow;horizontal=0;startSize=0;swimlaneHead=0;swimlaneBody=0;fillColor=none;collapsible=0;dropTarget=0;points=[[0,0.5],[1,0.5]];portConstraint=eastwest;top=0;left=0;right=0;bottom=0;strokeColor=#0000CC;fontSize=12;" vertex="1" parent="2sixpxUlGnC8m-W_eR1r-1">
          <mxGeometry y="60" width="200" height="30" as="geometry" />
        </mxCell>
        <mxCell id="2sixpxUlGnC8m-W_eR1r-6" value="FK" style="shape=partialRectangle;connectable=0;fillColor=none;top=0;left=0;bottom=0;right=0;editable=1;overflow=hidden;strokeColor=#0000CC;fontSize=12;" vertex="1" parent="2sixpxUlGnC8m-W_eR1r-5">
          <mxGeometry width="30" height="30" as="geometry">
            <mxRectangle width="30" height="30" as="alternateBounds" />
          </mxGeometry>
        </mxCell>
        <mxCell id="2sixpxUlGnC8m-W_eR1r-7" value="no_booking" style="shape=partialRectangle;connectable=0;fillColor=none;top=0;left=0;bottom=0;right=0;align=left;spacingLeft=6;overflow=hidden;strokeColor=#0000CC;fontSize=12;" vertex="1" parent="2sixpxUlGnC8m-W_eR1r-5">
          <mxGeometry x="30" width="170" height="30" as="geometry">
            <mxRectangle width="170" height="30" as="alternateBounds" />
          </mxGeometry>
        </mxCell>
        <mxCell id="2sixpxUlGnC8m-W_eR1r-8" value="" style="shape=tableRow;horizontal=0;startSize=0;swimlaneHead=0;swimlaneBody=0;fillColor=none;collapsible=0;dropTarget=0;points=[[0,0.5],[1,0.5]];portConstraint=eastwest;top=0;left=0;right=0;bottom=0;strokeColor=#0000CC;fontSize=12;" vertex="1" parent="2sixpxUlGnC8m-W_eR1r-1">
          <mxGeometry y="90" width="200" height="30" as="geometry" />
        </mxCell>
        <mxCell id="2sixpxUlGnC8m-W_eR1r-9" value="" style="shape=partialRectangle;connectable=0;fillColor=none;top=0;left=0;bottom=0;right=0;editable=1;overflow=hidden;strokeColor=#0000CC;fontSize=12;" vertex="1" parent="2sixpxUlGnC8m-W_eR1r-8">
          <mxGeometry width="30" height="30" as="geometry">
            <mxRectangle width="30" height="30" as="alternateBounds" />
          </mxGeometry>
        </mxCell>
        <mxCell id="2sixpxUlGnC8m-W_eR1r-10" value="nama_belakang" style="shape=partialRectangle;connectable=0;fillColor=none;top=0;left=0;bottom=0;right=0;align=left;spacingLeft=6;overflow=hidden;strokeColor=#0000CC;fontSize=12;" vertex="1" parent="2sixpxUlGnC8m-W_eR1r-8">
          <mxGeometry x="30" width="170" height="30" as="geometry">
            <mxRectangle width="170" height="30" as="alternateBounds" />
          </mxGeometry>
        </mxCell>
        <mxCell id="2sixpxUlGnC8m-W_eR1r-11" value="" style="shape=tableRow;horizontal=0;startSize=0;swimlaneHead=0;swimlaneBody=0;fillColor=none;collapsible=0;dropTarget=0;points=[[0,0.5],[1,0.5]];portConstraint=eastwest;top=0;left=0;right=0;bottom=0;strokeColor=#0000CC;fontSize=12;" vertex="1" parent="2sixpxUlGnC8m-W_eR1r-1">
          <mxGeometry y="120" width="200" height="30" as="geometry" />
        </mxCell>
        <mxCell id="2sixpxUlGnC8m-W_eR1r-12" value="" style="shape=partialRectangle;connectable=0;fillColor=none;top=0;left=0;bottom=0;right=0;editable=1;overflow=hidden;strokeColor=#0000CC;fontSize=12;" vertex="1" parent="2sixpxUlGnC8m-W_eR1r-11">
          <mxGeometry width="30" height="30" as="geometry">
            <mxRectangle width="30" height="30" as="alternateBounds" />
          </mxGeometry>
        </mxCell>
        <mxCell id="2sixpxUlGnC8m-W_eR1r-13" value="no_paspor" style="shape=partialRectangle;connectable=0;fillColor=none;top=0;left=0;bottom=0;right=0;align=left;spacingLeft=6;overflow=hidden;strokeColor=#0000CC;fontSize=12;" vertex="1" parent="2sixpxUlGnC8m-W_eR1r-11">
          <mxGeometry x="30" width="170" height="30" as="geometry">
            <mxRectangle width="170" height="30" as="alternateBounds" />
          </mxGeometry>
        </mxCell>
        <mxCell id="2sixpxUlGnC8m-W_eR1r-14" value="" style="shape=tableRow;horizontal=0;startSize=0;swimlaneHead=0;swimlaneBody=0;fillColor=none;collapsible=0;dropTarget=0;points=[[0,0.5],[1,0.5]];portConstraint=eastwest;top=0;left=0;right=0;bottom=0;strokeColor=#0000CC;fontSize=12;" vertex="1" parent="2sixpxUlGnC8m-W_eR1r-1">
          <mxGeometry y="150" width="200" height="30" as="geometry" />
        </mxCell>
        <mxCell id="2sixpxUlGnC8m-W_eR1r-15" value="" style="shape=partialRectangle;connectable=0;fillColor=none;top=0;left=0;bottom=0;right=0;editable=1;overflow=hidden;strokeColor=#0000CC;fontSize=12;" vertex="1" parent="2sixpxUlGnC8m-W_eR1r-14">
          <mxGeometry width="30" height="30" as="geometry">
            <mxRectangle width="30" height="30" as="alternateBounds" />
          </mxGeometry>
        </mxCell>
        <mxCell id="2sixpxUlGnC8m-W_eR1r-16" value="kewarganegaraan" style="shape=partialRectangle;connectable=0;fillColor=none;top=0;left=0;bottom=0;right=0;align=left;spacingLeft=6;overflow=hidden;strokeColor=#0000CC;fontSize=12;" vertex="1" parent="2sixpxUlGnC8m-W_eR1r-14">
          <mxGeometry x="30" width="170" height="30" as="geometry">
            <mxRectangle width="170" height="30" as="alternateBounds" />
          </mxGeometry>
        </mxCell>
        <mxCell id="2sixpxUlGnC8m-W_eR1r-17" value="" style="shape=tableRow;horizontal=0;startSize=0;swimlaneHead=0;swimlaneBody=0;fillColor=none;collapsible=0;dropTarget=0;points=[[0,0.5],[1,0.5]];portConstraint=eastwest;top=0;left=0;right=0;bottom=0;strokeColor=#0000CC;fontSize=12;" vertex="1" parent="2sixpxUlGnC8m-W_eR1r-1">
          <mxGeometry y="180" width="200" height="30" as="geometry" />
        </mxCell>
        <mxCell id="2sixpxUlGnC8m-W_eR1r-18" value="" style="shape=partialRectangle;connectable=0;fillColor=none;top=0;left=0;bottom=0;right=0;editable=1;overflow=hidden;strokeColor=#0000CC;fontSize=12;" vertex="1" parent="2sixpxUlGnC8m-W_eR1r-17">
          <mxGeometry width="30" height="30" as="geometry">
            <mxRectangle width="30" height="30" as="alternateBounds" />
          </mxGeometry>
        </mxCell>
        <mxCell id="2sixpxUlGnC8m-W_eR1r-19" value="no_kursi" style="shape=partialRectangle;connectable=0;fillColor=none;top=0;left=0;bottom=0;right=0;align=left;spacingLeft=6;overflow=hidden;strokeColor=#0000CC;fontSize=12;" vertex="1" parent="2sixpxUlGnC8m-W_eR1r-17">
          <mxGeometry x="30" width="170" height="30" as="geometry">
            <mxRectangle width="170" height="30" as="alternateBounds" />
          </mxGeometry>
        </mxCell>
        <mxCell id="2sixpxUlGnC8m-W_eR1r-20" value="" style="shape=tableRow;horizontal=0;startSize=0;swimlaneHead=0;swimlaneBody=0;fillColor=none;collapsible=0;dropTarget=0;points=[[0,0.5],[1,0.5]];portConstraint=eastwest;top=0;left=0;right=0;bottom=0;strokeColor=#0000CC;fontSize=12;" vertex="1" parent="2sixpxUlGnC8m-W_eR1r-1">
          <mxGeometry y="210" width="200" height="30" as="geometry" />
        </mxCell>
        <mxCell id="2sixpxUlGnC8m-W_eR1r-21" value="" style="shape=partialRectangle;connectable=0;fillColor=none;top=0;left=0;bottom=0;right=0;editable=1;overflow=hidden;strokeColor=#0000CC;fontSize=12;" vertex="1" parent="2sixpxUlGnC8m-W_eR1r-20">
          <mxGeometry width="30" height="30" as="geometry">
            <mxRectangle width="30" height="30" as="alternateBounds" />
          </mxGeometry>
        </mxCell>
        <mxCell id="2sixpxUlGnC8m-W_eR1r-22" value="kode_layanan" style="shape=partialRectangle;connectable=0;fillColor=none;top=0;left=0;bottom=0;right=0;align=left;spacingLeft=6;overflow=hidden;strokeColor=#0000CC;fontSize=12;" vertex="1" parent="2sixpxUlGnC8m-W_eR1r-20">
          <mxGeometry x="30" width="170" height="30" as="geometry">
            <mxRectangle width="170" height="30" as="alternateBounds" />
          </mxGeometry>
        </mxCell>
        <mxCell id="2sixpxUlGnC8m-W_eR1r-23" value="" style="shape=tableRow;horizontal=0;startSize=0;swimlaneHead=0;swimlaneBody=0;fillColor=none;collapsible=0;dropTarget=0;points=[[0,0.5],[1,0.5]];portConstraint=eastwest;top=0;left=0;right=0;bottom=1;strokeColor=#0000CC;fontSize=12;" vertex="1" parent="2sixpxUlGnC8m-W_eR1r-1">
          <mxGeometry y="240" width="200" height="30" as="geometry" />
        </mxCell>
        <mxCell id="2sixpxUlGnC8m-W_eR1r-24" value="" style="shape=partialRectangle;connectable=0;fillColor=none;top=0;left=0;bottom=0;right=0;fontStyle=1;overflow=hidden;strokeColor=#0000CC;fontSize=12;" vertex="1" parent="2sixpxUlGnC8m-W_eR1r-23">
          <mxGeometry width="30" height="30" as="geometry">
            <mxRectangle width="30" height="30" as="alternateBounds" />
          </mxGeometry>
        </mxCell>
        <mxCell id="2sixpxUlGnC8m-W_eR1r-25" value="nama_depan" style="shape=partialRectangle;connectable=0;fillColor=none;top=0;left=0;bottom=0;right=0;align=left;spacingLeft=6;fontStyle=1;overflow=hidden;strokeColor=#0000CC;fontSize=12;" vertex="1" parent="2sixpxUlGnC8m-W_eR1r-23">
          <mxGeometry x="30" width="170" height="30" as="geometry">
            <mxRectangle width="170" height="30" as="alternateBounds" />
          </mxGeometry>
        </mxCell>
        <mxCell id="2sixpxUlGnC8m-W_eR1r-26" value="tujuan" style="shape=table;startSize=30;container=1;collapsible=1;childLayout=tableLayout;fixedRows=1;rowLines=0;fontStyle=1;align=center;resizeLast=1;strokeColor=#0000CC;fontSize=12;fillColor=#99FF33;" vertex="1" parent="2sixpxUlGnC8m-W_eR1r-87">
          <mxGeometry x="990" y="560" width="200" height="90" as="geometry" />
        </mxCell>
        <mxCell id="2sixpxUlGnC8m-W_eR1r-27" value="" style="shape=tableRow;horizontal=0;startSize=0;swimlaneHead=0;swimlaneBody=0;fillColor=none;collapsible=0;dropTarget=0;points=[[0,0.5],[1,0.5]];portConstraint=eastwest;top=0;left=0;right=0;bottom=1;strokeColor=#0000CC;fontSize=12;" vertex="1" parent="2sixpxUlGnC8m-W_eR1r-26">
          <mxGeometry y="30" width="200" height="30" as="geometry" />
        </mxCell>
        <mxCell id="2sixpxUlGnC8m-W_eR1r-28" value="PK" style="shape=partialRectangle;connectable=0;fillColor=none;top=0;left=0;bottom=0;right=0;fontStyle=1;overflow=hidden;strokeColor=#0000CC;fontSize=12;" vertex="1" parent="2sixpxUlGnC8m-W_eR1r-27">
          <mxGeometry width="30" height="30" as="geometry">
            <mxRectangle width="30" height="30" as="alternateBounds" />
          </mxGeometry>
        </mxCell>
        <mxCell id="2sixpxUlGnC8m-W_eR1r-29" value="kode_bandara_tujuan" style="shape=partialRectangle;connectable=0;fillColor=none;top=0;left=0;bottom=0;right=0;align=left;spacingLeft=6;fontStyle=5;overflow=hidden;strokeColor=#0000CC;fontSize=12;" vertex="1" parent="2sixpxUlGnC8m-W_eR1r-27">
          <mxGeometry x="30" width="170" height="30" as="geometry">
            <mxRectangle width="170" height="30" as="alternateBounds" />
          </mxGeometry>
        </mxCell>
        <mxCell id="2sixpxUlGnC8m-W_eR1r-30" value="" style="shape=tableRow;horizontal=0;startSize=0;swimlaneHead=0;swimlaneBody=0;fillColor=none;collapsible=0;dropTarget=0;points=[[0,0.5],[1,0.5]];portConstraint=eastwest;top=0;left=0;right=0;bottom=0;strokeColor=#0000CC;fontSize=12;" vertex="1" parent="2sixpxUlGnC8m-W_eR1r-26">
          <mxGeometry y="60" width="200" height="30" as="geometry" />
        </mxCell>
        <mxCell id="2sixpxUlGnC8m-W_eR1r-31" value="" style="shape=partialRectangle;connectable=0;fillColor=none;top=0;left=0;bottom=0;right=0;editable=1;overflow=hidden;strokeColor=#0000CC;fontSize=12;" vertex="1" parent="2sixpxUlGnC8m-W_eR1r-30">
          <mxGeometry width="30" height="30" as="geometry">
            <mxRectangle width="30" height="30" as="alternateBounds" />
          </mxGeometry>
        </mxCell>
        <mxCell id="2sixpxUlGnC8m-W_eR1r-32" value="tempat_tujuan" style="shape=partialRectangle;connectable=0;fillColor=none;top=0;left=0;bottom=0;right=0;align=left;spacingLeft=6;overflow=hidden;strokeColor=#0000CC;fontSize=12;" vertex="1" parent="2sixpxUlGnC8m-W_eR1r-30">
          <mxGeometry x="30" width="170" height="30" as="geometry">
            <mxRectangle width="170" height="30" as="alternateBounds" />
          </mxGeometry>
        </mxCell>
        <mxCell id="2sixpxUlGnC8m-W_eR1r-33" value="keberangkatan" style="shape=table;startSize=30;container=1;collapsible=1;childLayout=tableLayout;fixedRows=1;rowLines=0;fontStyle=1;align=center;resizeLast=1;strokeColor=#0000CC;fontSize=12;fillColor=#99FF33;" vertex="1" parent="2sixpxUlGnC8m-W_eR1r-87">
          <mxGeometry x="940" y="400" width="220.38" height="90" as="geometry" />
        </mxCell>
        <mxCell id="2sixpxUlGnC8m-W_eR1r-34" value="" style="shape=tableRow;horizontal=0;startSize=0;swimlaneHead=0;swimlaneBody=0;fillColor=none;collapsible=0;dropTarget=0;points=[[0,0.5],[1,0.5]];portConstraint=eastwest;top=0;left=0;right=0;bottom=1;strokeColor=#0000CC;fontSize=12;" vertex="1" parent="2sixpxUlGnC8m-W_eR1r-33">
          <mxGeometry y="30" width="220.38" height="30" as="geometry" />
        </mxCell>
        <mxCell id="2sixpxUlGnC8m-W_eR1r-35" value="PK" style="shape=partialRectangle;connectable=0;fillColor=none;top=0;left=0;bottom=0;right=0;fontStyle=1;overflow=hidden;strokeColor=#0000CC;fontSize=12;" vertex="1" parent="2sixpxUlGnC8m-W_eR1r-34">
          <mxGeometry width="30" height="30" as="geometry">
            <mxRectangle width="30" height="30" as="alternateBounds" />
          </mxGeometry>
        </mxCell>
        <mxCell id="2sixpxUlGnC8m-W_eR1r-36" value="kode_bandara_keberangkatan" style="shape=partialRectangle;connectable=0;fillColor=none;top=0;left=0;bottom=0;right=0;align=left;spacingLeft=6;fontStyle=5;overflow=hidden;strokeColor=#0000CC;fontSize=12;" vertex="1" parent="2sixpxUlGnC8m-W_eR1r-34">
          <mxGeometry x="30" width="190.38" height="30" as="geometry">
            <mxRectangle width="190.38" height="30" as="alternateBounds" />
          </mxGeometry>
        </mxCell>
        <mxCell id="2sixpxUlGnC8m-W_eR1r-37" value="" style="shape=tableRow;horizontal=0;startSize=0;swimlaneHead=0;swimlaneBody=0;fillColor=none;collapsible=0;dropTarget=0;points=[[0,0.5],[1,0.5]];portConstraint=eastwest;top=0;left=0;right=0;bottom=0;strokeColor=#0000CC;fontSize=12;" vertex="1" parent="2sixpxUlGnC8m-W_eR1r-33">
          <mxGeometry y="60" width="220.38" height="30" as="geometry" />
        </mxCell>
        <mxCell id="2sixpxUlGnC8m-W_eR1r-38" value="" style="shape=partialRectangle;connectable=0;fillColor=none;top=0;left=0;bottom=0;right=0;editable=1;overflow=hidden;strokeColor=#0000CC;fontSize=12;" vertex="1" parent="2sixpxUlGnC8m-W_eR1r-37">
          <mxGeometry width="30" height="30" as="geometry">
            <mxRectangle width="30" height="30" as="alternateBounds" />
          </mxGeometry>
        </mxCell>
        <mxCell id="2sixpxUlGnC8m-W_eR1r-39" value="tempat_keberangkatan" style="shape=partialRectangle;connectable=0;fillColor=none;top=0;left=0;bottom=0;right=0;align=left;spacingLeft=6;overflow=hidden;strokeColor=#0000CC;fontSize=12;" vertex="1" parent="2sixpxUlGnC8m-W_eR1r-37">
          <mxGeometry x="30" width="190.38" height="30" as="geometry">
            <mxRectangle width="190.38" height="30" as="alternateBounds" />
          </mxGeometry>
        </mxCell>
        <mxCell id="2sixpxUlGnC8m-W_eR1r-40" value="paspor" style="shape=table;startSize=30;container=1;collapsible=1;childLayout=tableLayout;fixedRows=1;rowLines=0;fontStyle=1;align=center;resizeLast=1;strokeColor=#0000CC;fontSize=12;fillColor=#99FF33;" vertex="1" parent="2sixpxUlGnC8m-W_eR1r-87">
          <mxGeometry x="920" y="110" width="200" height="90" as="geometry" />
        </mxCell>
        <mxCell id="2sixpxUlGnC8m-W_eR1r-41" value="" style="shape=tableRow;horizontal=0;startSize=0;swimlaneHead=0;swimlaneBody=0;fillColor=none;collapsible=0;dropTarget=0;points=[[0,0.5],[1,0.5]];portConstraint=eastwest;top=0;left=0;right=0;bottom=1;strokeColor=#0000CC;fontSize=12;" vertex="1" parent="2sixpxUlGnC8m-W_eR1r-40">
          <mxGeometry y="30" width="200" height="30" as="geometry" />
        </mxCell>
        <mxCell id="2sixpxUlGnC8m-W_eR1r-42" value="PK" style="shape=partialRectangle;connectable=0;fillColor=none;top=0;left=0;bottom=0;right=0;fontStyle=1;overflow=hidden;strokeColor=#0000CC;fontSize=12;" vertex="1" parent="2sixpxUlGnC8m-W_eR1r-41">
          <mxGeometry width="30" height="30" as="geometry">
            <mxRectangle width="30" height="30" as="alternateBounds" />
          </mxGeometry>
        </mxCell>
        <mxCell id="2sixpxUlGnC8m-W_eR1r-43" value="no_paspor" style="shape=partialRectangle;connectable=0;fillColor=none;top=0;left=0;bottom=0;right=0;align=left;spacingLeft=6;fontStyle=5;overflow=hidden;strokeColor=#0000CC;fontSize=12;" vertex="1" parent="2sixpxUlGnC8m-W_eR1r-41">
          <mxGeometry x="30" width="170" height="30" as="geometry">
            <mxRectangle width="170" height="30" as="alternateBounds" />
          </mxGeometry>
        </mxCell>
        <mxCell id="2sixpxUlGnC8m-W_eR1r-44" value="" style="shape=tableRow;horizontal=0;startSize=0;swimlaneHead=0;swimlaneBody=0;fillColor=none;collapsible=0;dropTarget=0;points=[[0,0.5],[1,0.5]];portConstraint=eastwest;top=0;left=0;right=0;bottom=0;strokeColor=#0000CC;fontSize=12;" vertex="1" parent="2sixpxUlGnC8m-W_eR1r-40">
          <mxGeometry y="60" width="200" height="30" as="geometry" />
        </mxCell>
        <mxCell id="2sixpxUlGnC8m-W_eR1r-45" value="" style="shape=partialRectangle;connectable=0;fillColor=none;top=0;left=0;bottom=0;right=0;editable=1;overflow=hidden;strokeColor=#0000CC;fontSize=12;" vertex="1" parent="2sixpxUlGnC8m-W_eR1r-44">
          <mxGeometry width="30" height="30" as="geometry">
            <mxRectangle width="30" height="30" as="alternateBounds" />
          </mxGeometry>
        </mxCell>
        <mxCell id="2sixpxUlGnC8m-W_eR1r-46" value="tanggal_kadaluarsa_paspor" style="shape=partialRectangle;connectable=0;fillColor=none;top=0;left=0;bottom=0;right=0;align=left;spacingLeft=6;overflow=hidden;strokeColor=#0000CC;fontSize=12;" vertex="1" parent="2sixpxUlGnC8m-W_eR1r-44">
          <mxGeometry x="30" width="170" height="30" as="geometry">
            <mxRectangle width="170" height="30" as="alternateBounds" />
          </mxGeometry>
        </mxCell>
        <mxCell id="2sixpxUlGnC8m-W_eR1r-47" value="penerbangan" style="shape=table;startSize=30;container=1;collapsible=1;childLayout=tableLayout;fixedRows=1;rowLines=0;fontStyle=1;align=center;resizeLast=1;strokeColor=#0000CC;fontSize=12;fillColor=#99FF33;" vertex="1" parent="2sixpxUlGnC8m-W_eR1r-87">
          <mxGeometry x="324.78999999999996" y="470" width="200" height="150" as="geometry" />
        </mxCell>
        <mxCell id="2sixpxUlGnC8m-W_eR1r-48" value="" style="shape=tableRow;horizontal=0;startSize=0;swimlaneHead=0;swimlaneBody=0;fillColor=none;collapsible=0;dropTarget=0;points=[[0,0.5],[1,0.5]];portConstraint=eastwest;top=0;left=0;right=0;bottom=1;strokeColor=#0000CC;fontSize=12;" vertex="1" parent="2sixpxUlGnC8m-W_eR1r-47">
          <mxGeometry y="30" width="200" height="30" as="geometry" />
        </mxCell>
        <mxCell id="2sixpxUlGnC8m-W_eR1r-49" value="PK" style="shape=partialRectangle;connectable=0;fillColor=none;top=0;left=0;bottom=0;right=0;fontStyle=1;overflow=hidden;strokeColor=#0000CC;fontSize=12;" vertex="1" parent="2sixpxUlGnC8m-W_eR1r-48">
          <mxGeometry width="30.38000000000011" height="30" as="geometry">
            <mxRectangle width="30.38000000000011" height="30" as="alternateBounds" />
          </mxGeometry>
        </mxCell>
        <mxCell id="2sixpxUlGnC8m-W_eR1r-50" value="no_penerbangan" style="shape=partialRectangle;connectable=0;fillColor=none;top=0;left=0;bottom=0;right=0;align=left;spacingLeft=6;fontStyle=5;overflow=hidden;strokeColor=#0000CC;fontSize=12;" vertex="1" parent="2sixpxUlGnC8m-W_eR1r-48">
          <mxGeometry x="30.38000000000011" width="169.6199999999999" height="30" as="geometry">
            <mxRectangle width="169.6199999999999" height="30" as="alternateBounds" />
          </mxGeometry>
        </mxCell>
        <mxCell id="2sixpxUlGnC8m-W_eR1r-51" value="" style="shape=tableRow;horizontal=0;startSize=0;swimlaneHead=0;swimlaneBody=0;fillColor=none;collapsible=0;dropTarget=0;points=[[0,0.5],[1,0.5]];portConstraint=eastwest;top=0;left=0;right=0;bottom=0;strokeColor=#0000CC;fontSize=12;" vertex="1" parent="2sixpxUlGnC8m-W_eR1r-47">
          <mxGeometry y="60" width="200" height="30" as="geometry" />
        </mxCell>
        <mxCell id="2sixpxUlGnC8m-W_eR1r-52" value="" style="shape=partialRectangle;connectable=0;fillColor=none;top=0;left=0;bottom=0;right=0;editable=1;overflow=hidden;strokeColor=#0000CC;fontSize=12;" vertex="1" parent="2sixpxUlGnC8m-W_eR1r-51">
          <mxGeometry width="30.38000000000011" height="30" as="geometry">
            <mxRectangle width="30.38000000000011" height="30" as="alternateBounds" />
          </mxGeometry>
        </mxCell>
        <mxCell id="2sixpxUlGnC8m-W_eR1r-53" value="gerbang_keberangkatan" style="shape=partialRectangle;connectable=0;fillColor=none;top=0;left=0;bottom=0;right=0;align=left;spacingLeft=6;overflow=hidden;strokeColor=#0000CC;fontSize=12;" vertex="1" parent="2sixpxUlGnC8m-W_eR1r-51">
          <mxGeometry x="30.38000000000011" width="169.6199999999999" height="30" as="geometry">
            <mxRectangle width="169.6199999999999" height="30" as="alternateBounds" />
          </mxGeometry>
        </mxCell>
        <mxCell id="2sixpxUlGnC8m-W_eR1r-54" value="" style="shape=tableRow;horizontal=0;startSize=0;swimlaneHead=0;swimlaneBody=0;fillColor=none;collapsible=0;dropTarget=0;points=[[0,0.5],[1,0.5]];portConstraint=eastwest;top=0;left=0;right=0;bottom=0;strokeColor=#0000CC;fontSize=12;" vertex="1" parent="2sixpxUlGnC8m-W_eR1r-47">
          <mxGeometry y="90" width="200" height="30" as="geometry" />
        </mxCell>
        <mxCell id="2sixpxUlGnC8m-W_eR1r-55" value="" style="shape=partialRectangle;connectable=0;fillColor=none;top=0;left=0;bottom=0;right=0;editable=1;overflow=hidden;strokeColor=#0000CC;fontSize=12;" vertex="1" parent="2sixpxUlGnC8m-W_eR1r-54">
          <mxGeometry width="30.38000000000011" height="30" as="geometry">
            <mxRectangle width="30.38000000000011" height="30" as="alternateBounds" />
          </mxGeometry>
        </mxCell>
        <mxCell id="2sixpxUlGnC8m-W_eR1r-56" value="kode_bandara_keberangkatan" style="shape=partialRectangle;connectable=0;fillColor=none;top=0;left=0;bottom=0;right=0;align=left;spacingLeft=6;overflow=hidden;strokeColor=#0000CC;fontSize=12;" vertex="1" parent="2sixpxUlGnC8m-W_eR1r-54">
          <mxGeometry x="30.38000000000011" width="169.6199999999999" height="30" as="geometry">
            <mxRectangle width="169.6199999999999" height="30" as="alternateBounds" />
          </mxGeometry>
        </mxCell>
        <mxCell id="2sixpxUlGnC8m-W_eR1r-57" value="" style="shape=tableRow;horizontal=0;startSize=0;swimlaneHead=0;swimlaneBody=0;fillColor=none;collapsible=0;dropTarget=0;points=[[0,0.5],[1,0.5]];portConstraint=eastwest;top=0;left=0;right=0;bottom=0;strokeColor=#0000CC;fontSize=12;" vertex="1" parent="2sixpxUlGnC8m-W_eR1r-47">
          <mxGeometry y="120" width="200" height="30" as="geometry" />
        </mxCell>
        <mxCell id="2sixpxUlGnC8m-W_eR1r-58" value="" style="shape=partialRectangle;connectable=0;fillColor=none;top=0;left=0;bottom=0;right=0;editable=1;overflow=hidden;strokeColor=#0000CC;fontSize=12;" vertex="1" parent="2sixpxUlGnC8m-W_eR1r-57">
          <mxGeometry width="30.38000000000011" height="30" as="geometry">
            <mxRectangle width="30.38000000000011" height="30" as="alternateBounds" />
          </mxGeometry>
        </mxCell>
        <mxCell id="2sixpxUlGnC8m-W_eR1r-59" value="kode_bandara_tujuan" style="shape=partialRectangle;connectable=0;fillColor=none;top=0;left=0;bottom=0;right=0;align=left;spacingLeft=6;overflow=hidden;strokeColor=#0000CC;fontSize=12;" vertex="1" parent="2sixpxUlGnC8m-W_eR1r-57">
          <mxGeometry x="30.38000000000011" width="169.6199999999999" height="30" as="geometry">
            <mxRectangle width="169.6199999999999" height="30" as="alternateBounds" />
          </mxGeometry>
        </mxCell>
        <mxCell id="2sixpxUlGnC8m-W_eR1r-60" value="boarding_pass" style="swimlane;fontStyle=0;childLayout=stackLayout;horizontal=1;startSize=30;horizontalStack=0;resizeParent=1;resizeParentMax=0;resizeLast=0;collapsible=1;marginBottom=0;whiteSpace=wrap;html=1;" vertex="1" parent="2sixpxUlGnC8m-W_eR1r-87">
          <mxGeometry x="610" y="170" width="200" height="150" as="geometry" />
        </mxCell>
        <mxCell id="2sixpxUlGnC8m-W_eR1r-61" value="no_booking" style="text;strokeColor=none;fillColor=none;align=left;verticalAlign=middle;spacingLeft=4;spacingRight=4;overflow=hidden;points=[[0,0.5],[1,0.5]];portConstraint=eastwest;rotatable=0;whiteSpace=wrap;html=1;" vertex="1" parent="2sixpxUlGnC8m-W_eR1r-60">
          <mxGeometry y="30" width="200" height="30" as="geometry" />
        </mxCell>
        <mxCell id="2sixpxUlGnC8m-W_eR1r-62" value="no_penerbangan" style="text;strokeColor=none;fillColor=none;align=left;verticalAlign=middle;spacingLeft=4;spacingRight=4;overflow=hidden;points=[[0,0.5],[1,0.5]];portConstraint=eastwest;rotatable=0;whiteSpace=wrap;html=1;" vertex="1" parent="2sixpxUlGnC8m-W_eR1r-60">
          <mxGeometry y="60" width="200" height="30" as="geometry" />
        </mxCell>
        <mxCell id="2sixpxUlGnC8m-W_eR1r-63" value="nama_depan" style="text;strokeColor=none;fillColor=none;align=left;verticalAlign=middle;spacingLeft=4;spacingRight=4;overflow=hidden;points=[[0,0.5],[1,0.5]];portConstraint=eastwest;rotatable=0;whiteSpace=wrap;html=1;" vertex="1" parent="2sixpxUlGnC8m-W_eR1r-60">
          <mxGeometry y="90" width="200" height="30" as="geometry" />
        </mxCell>
        <mxCell id="2sixpxUlGnC8m-W_eR1r-64" value="no_urut_check_in" style="text;strokeColor=none;fillColor=none;align=left;verticalAlign=middle;spacingLeft=4;spacingRight=4;overflow=hidden;points=[[0,0.5],[1,0.5]];portConstraint=eastwest;rotatable=0;whiteSpace=wrap;html=1;" vertex="1" parent="2sixpxUlGnC8m-W_eR1r-60">
          <mxGeometry y="120" width="200" height="30" as="geometry" />
        </mxCell>
        <mxCell id="2sixpxUlGnC8m-W_eR1r-65" value="tempat_duduk" style="shape=table;startSize=30;container=1;collapsible=1;childLayout=tableLayout;fixedRows=1;rowLines=0;fontStyle=1;align=center;resizeLast=1;strokeColor=#0000CC;fontSize=12;fillColor=#99FF33;" vertex="1" parent="2sixpxUlGnC8m-W_eR1r-87">
          <mxGeometry x="40" y="460" width="220.38" height="90" as="geometry" />
        </mxCell>
        <mxCell id="2sixpxUlGnC8m-W_eR1r-66" value="" style="shape=tableRow;horizontal=0;startSize=0;swimlaneHead=0;swimlaneBody=0;fillColor=none;collapsible=0;dropTarget=0;points=[[0,0.5],[1,0.5]];portConstraint=eastwest;top=0;left=0;right=0;bottom=1;strokeColor=#0000CC;fontSize=12;" vertex="1" parent="2sixpxUlGnC8m-W_eR1r-65">
          <mxGeometry y="30" width="220.38" height="30" as="geometry" />
        </mxCell>
        <mxCell id="2sixpxUlGnC8m-W_eR1r-67" value="PK" style="shape=partialRectangle;connectable=0;fillColor=none;top=0;left=0;bottom=0;right=0;fontStyle=1;overflow=hidden;strokeColor=#0000CC;fontSize=12;" vertex="1" parent="2sixpxUlGnC8m-W_eR1r-66">
          <mxGeometry width="30" height="30" as="geometry">
            <mxRectangle width="30" height="30" as="alternateBounds" />
          </mxGeometry>
        </mxCell>
        <mxCell id="2sixpxUlGnC8m-W_eR1r-68" value="no_kursi" style="shape=partialRectangle;connectable=0;fillColor=none;top=0;left=0;bottom=0;right=0;align=left;spacingLeft=6;fontStyle=5;overflow=hidden;strokeColor=#0000CC;fontSize=12;" vertex="1" parent="2sixpxUlGnC8m-W_eR1r-66">
          <mxGeometry x="30" width="190.38" height="30" as="geometry">
            <mxRectangle width="190.38" height="30" as="alternateBounds" />
          </mxGeometry>
        </mxCell>
        <mxCell id="2sixpxUlGnC8m-W_eR1r-69" value="" style="shape=tableRow;horizontal=0;startSize=0;swimlaneHead=0;swimlaneBody=0;fillColor=none;collapsible=0;dropTarget=0;points=[[0,0.5],[1,0.5]];portConstraint=eastwest;top=0;left=0;right=0;bottom=0;strokeColor=#0000CC;fontSize=12;" vertex="1" parent="2sixpxUlGnC8m-W_eR1r-65">
          <mxGeometry y="60" width="220.38" height="30" as="geometry" />
        </mxCell>
        <mxCell id="2sixpxUlGnC8m-W_eR1r-70" value="" style="shape=partialRectangle;connectable=0;fillColor=none;top=0;left=0;bottom=0;right=0;editable=1;overflow=hidden;strokeColor=#0000CC;fontSize=12;" vertex="1" parent="2sixpxUlGnC8m-W_eR1r-69">
          <mxGeometry width="30" height="30" as="geometry">
            <mxRectangle width="30" height="30" as="alternateBounds" />
          </mxGeometry>
        </mxCell>
        <mxCell id="2sixpxUlGnC8m-W_eR1r-71" value="zona" style="shape=partialRectangle;connectable=0;fillColor=none;top=0;left=0;bottom=0;right=0;align=left;spacingLeft=6;overflow=hidden;strokeColor=#0000CC;fontSize=12;" vertex="1" parent="2sixpxUlGnC8m-W_eR1r-69">
          <mxGeometry x="30" width="190.38" height="30" as="geometry">
            <mxRectangle width="190.38" height="30" as="alternateBounds" />
          </mxGeometry>
        </mxCell>
        <mxCell id="2sixpxUlGnC8m-W_eR1r-72" style="edgeStyle=orthogonalEdgeStyle;rounded=0;orthogonalLoop=1;jettySize=auto;html=1;entryX=1;entryY=0.5;entryDx=0;entryDy=0;strokeColor=#FF9933;" edge="1" parent="2sixpxUlGnC8m-W_eR1r-87" source="2sixpxUlGnC8m-W_eR1r-62" target="2sixpxUlGnC8m-W_eR1r-48">
          <mxGeometry relative="1" as="geometry" />
        </mxCell>
        <mxCell id="2sixpxUlGnC8m-W_eR1r-73" style="edgeStyle=orthogonalEdgeStyle;rounded=0;orthogonalLoop=1;jettySize=auto;html=1;exitX=1;exitY=0.5;exitDx=0;exitDy=0;entryX=0;entryY=0.5;entryDx=0;entryDy=0;strokeColor=#FF9933;" edge="1" parent="2sixpxUlGnC8m-W_eR1r-87" source="2sixpxUlGnC8m-W_eR1r-17" target="2sixpxUlGnC8m-W_eR1r-66">
          <mxGeometry relative="1" as="geometry">
            <Array as="points">
              <mxPoint x="480" y="315" />
              <mxPoint x="480" y="395" />
              <mxPoint y="395" />
              <mxPoint y="505" />
            </Array>
          </mxGeometry>
        </mxCell>
        <mxCell id="2sixpxUlGnC8m-W_eR1r-74" style="edgeStyle=orthogonalEdgeStyle;rounded=0;orthogonalLoop=1;jettySize=auto;html=1;entryX=0;entryY=0.5;entryDx=0;entryDy=0;strokeColor=#FF9933;exitX=1;exitY=0.5;exitDx=0;exitDy=0;" edge="1" parent="2sixpxUlGnC8m-W_eR1r-87" source="2sixpxUlGnC8m-W_eR1r-23" target="2sixpxUlGnC8m-W_eR1r-63">
          <mxGeometry relative="1" as="geometry">
            <Array as="points">
              <mxPoint x="300" y="375" />
              <mxPoint x="300" y="275" />
            </Array>
          </mxGeometry>
        </mxCell>
        <mxCell id="2sixpxUlGnC8m-W_eR1r-75" style="edgeStyle=orthogonalEdgeStyle;rounded=0;orthogonalLoop=1;jettySize=auto;html=1;exitX=0;exitY=0.5;exitDx=0;exitDy=0;entryX=1;entryY=0.5;entryDx=0;entryDy=0;strokeColor=#FF9933;" edge="1" parent="2sixpxUlGnC8m-W_eR1r-87" source="2sixpxUlGnC8m-W_eR1r-41" target="2sixpxUlGnC8m-W_eR1r-11">
          <mxGeometry relative="1" as="geometry">
            <Array as="points">
              <mxPoint x="500" y="155" />
              <mxPoint x="500" y="255" />
            </Array>
          </mxGeometry>
        </mxCell>
        <mxCell id="2sixpxUlGnC8m-W_eR1r-76" style="edgeStyle=orthogonalEdgeStyle;rounded=0;orthogonalLoop=1;jettySize=auto;html=1;entryX=0;entryY=0.5;entryDx=0;entryDy=0;strokeColor=#FF9933;" edge="1" parent="2sixpxUlGnC8m-W_eR1r-87" source="2sixpxUlGnC8m-W_eR1r-57" target="2sixpxUlGnC8m-W_eR1r-27">
          <mxGeometry relative="1" as="geometry" />
        </mxCell>
        <mxCell id="2sixpxUlGnC8m-W_eR1r-77" style="edgeStyle=orthogonalEdgeStyle;rounded=0;orthogonalLoop=1;jettySize=auto;html=1;entryX=0;entryY=0.5;entryDx=0;entryDy=0;strokeColor=#FF9933;" edge="1" parent="2sixpxUlGnC8m-W_eR1r-87" source="2sixpxUlGnC8m-W_eR1r-54" target="2sixpxUlGnC8m-W_eR1r-34">
          <mxGeometry relative="1" as="geometry" />
        </mxCell>
        <mxCell id="2sixpxUlGnC8m-W_eR1r-78" value="pelayanan" style="shape=table;startSize=30;container=1;collapsible=1;childLayout=tableLayout;fixedRows=1;rowLines=0;fontStyle=1;align=center;resizeLast=1;strokeColor=#0000CC;fontSize=12;fillColor=#99FF33;" vertex="1" parent="2sixpxUlGnC8m-W_eR1r-87">
          <mxGeometry x="291.23" width="200" height="90" as="geometry" />
        </mxCell>
        <mxCell id="2sixpxUlGnC8m-W_eR1r-79" value="" style="shape=tableRow;horizontal=0;startSize=0;swimlaneHead=0;swimlaneBody=0;fillColor=none;collapsible=0;dropTarget=0;points=[[0,0.5],[1,0.5]];portConstraint=eastwest;top=0;left=0;right=0;bottom=1;strokeColor=#0000CC;fontSize=12;" vertex="1" parent="2sixpxUlGnC8m-W_eR1r-78">
          <mxGeometry y="30" width="200" height="30" as="geometry" />
        </mxCell>
        <mxCell id="2sixpxUlGnC8m-W_eR1r-80" value="PK" style="shape=partialRectangle;connectable=0;fillColor=none;top=0;left=0;bottom=0;right=0;fontStyle=1;overflow=hidden;strokeColor=#0000CC;fontSize=12;" vertex="1" parent="2sixpxUlGnC8m-W_eR1r-79">
          <mxGeometry width="30" height="30" as="geometry">
            <mxRectangle width="30" height="30" as="alternateBounds" />
          </mxGeometry>
        </mxCell>
        <mxCell id="2sixpxUlGnC8m-W_eR1r-81" value="kode_layanan" style="shape=partialRectangle;connectable=0;fillColor=none;top=0;left=0;bottom=0;right=0;align=left;spacingLeft=6;fontStyle=5;overflow=hidden;strokeColor=#0000CC;fontSize=12;" vertex="1" parent="2sixpxUlGnC8m-W_eR1r-79">
          <mxGeometry x="30" width="170" height="30" as="geometry">
            <mxRectangle width="170" height="30" as="alternateBounds" />
          </mxGeometry>
        </mxCell>
        <mxCell id="2sixpxUlGnC8m-W_eR1r-82" value="" style="shape=tableRow;horizontal=0;startSize=0;swimlaneHead=0;swimlaneBody=0;fillColor=none;collapsible=0;dropTarget=0;points=[[0,0.5],[1,0.5]];portConstraint=eastwest;top=0;left=0;right=0;bottom=0;strokeColor=#0000CC;fontSize=12;" vertex="1" parent="2sixpxUlGnC8m-W_eR1r-78">
          <mxGeometry y="60" width="200" height="30" as="geometry" />
        </mxCell>
        <mxCell id="2sixpxUlGnC8m-W_eR1r-83" value="" style="shape=partialRectangle;connectable=0;fillColor=none;top=0;left=0;bottom=0;right=0;editable=1;overflow=hidden;strokeColor=#0000CC;fontSize=12;" vertex="1" parent="2sixpxUlGnC8m-W_eR1r-82">
          <mxGeometry width="30" height="30" as="geometry">
            <mxRectangle width="30" height="30" as="alternateBounds" />
          </mxGeometry>
        </mxCell>
        <mxCell id="2sixpxUlGnC8m-W_eR1r-84" value="jenis_layanan" style="shape=partialRectangle;connectable=0;fillColor=none;top=0;left=0;bottom=0;right=0;align=left;spacingLeft=6;overflow=hidden;strokeColor=#0000CC;fontSize=12;" vertex="1" parent="2sixpxUlGnC8m-W_eR1r-82">
          <mxGeometry x="30" width="170" height="30" as="geometry">
            <mxRectangle width="170" height="30" as="alternateBounds" />
          </mxGeometry>
        </mxCell>
        <mxCell id="2sixpxUlGnC8m-W_eR1r-85" style="edgeStyle=orthogonalEdgeStyle;rounded=0;orthogonalLoop=1;jettySize=auto;html=1;strokeColor=#FF9933;" edge="1" parent="2sixpxUlGnC8m-W_eR1r-87" source="2sixpxUlGnC8m-W_eR1r-20" target="2sixpxUlGnC8m-W_eR1r-79">
          <mxGeometry relative="1" as="geometry" />
        </mxCell>
      </root>
    </mxGraphModel>
  </diagram>
</mxfile>
